<svg xmlns="http://www.w3.org/2000/svg" viewBox="0 0 153.72 51.44">
  <g id="Layer_2" data-name="Layer 2">
    <g id="Mouth">
      <g id="Mouth-2" data-name="Mouth">
        <path d="M32.55,37.22S43.61,51.44,60.8,51.44s79.49-7.15,88.69-18.38S50.93,21.31,50.93,21.31Z" opacity="0.1"/>
        <g>
          <path d="M148.45,24.83c0,6.38-3.85,7-5.26,7a3.8,3.8,0,0,1-.51,0,142.73,142.73,0,0,1-23.89-2c-19.37-3.2-34.41-9.11-53-9.11-18.29,0-25.4,5.7-37.56,8.94a67.33,67.33,0,0,1-18,2.2,6.06,6.06,0,0,1-1.54.2c-1.45,0-3.42-.54-3.42-3.4,0-4,3.57-4.23,4.46-4.23h.21c28.56,0,31.47-19.06,52.33-19.06,5.64,0,12.58,1.39,21.69,4.92C126.8,26.8,148.45,17,148.45,24.83Z" fill="#ffa12a"/>
          <path d="M142.51,35a157.53,157.53,0,0,1-34.41-4c-3.19-.7-6.31-1.42-9.4-2.15-11-2.56-21.31-5-32.95-5-12.11,0-19,2.57-26.22,5.31-1.63.61-3.26,1.23-5,1.82a69.07,69.07,0,0,1-24,4l-.36.07v.47c12,0,18.72,1.81,25.82,3.73C42.87,41.13,49.94,43,61.42,43c11.78,0,27.81-2,43.3-3.92,14.64-1.82,28.48-3.56,38-3.56V35Z" fill="#ff730d"/>
          <ellipse cx="52.98" cy="14.09" rx="6.98" ry="5.28" transform="translate(5.56 41.59) rotate(-45)" fill="#fff" opacity="0.7"/>
          <path d="M146.89,16.74a47.32,47.32,0,0,0-9.36-.94l-.34,0A148.75,148.75,0,0,1,85.87,5.28C76.72,1.72,69,0,62.27,0,51,0,43.9,5,37.57,9.36c-6.8,4.75-13.84,9.66-27.48,9.7H9.73C4.9,19.05,0,22.31,0,28.55a8.31,8.31,0,0,0,8.69,8.67,12.88,12.88,0,0,0,1.87-.16l.22,0A71.3,71.3,0,0,0,35.22,32.9c1.55-.54,3-1.09,4.51-1.65l.5-.19C47.3,28.4,54,25.88,65.75,25.88c11.4,0,21.63,2.39,32.49,4.93,3.58.84,6.58,1.53,9.44,2.15A159.19,159.19,0,0,0,142.39,37h.16c.19,0,.41,0,.64,0,5.24,0,10.53-3.78,10.53-12.22C153.72,22.93,153.05,18.33,146.89,16.74Zm-3.7,15a3.8,3.8,0,0,1-.51,0,142.73,142.73,0,0,1-23.89-2c-19.37-3.2-34.41-9.11-53-9.11-18.29,0-25.4,5.7-37.56,8.94a67.33,67.33,0,0,1-18,2.2,6.06,6.06,0,0,1-1.54.2c-1.45,0-3.42-.54-3.42-3.4,0-4,3.57-4.23,4.46-4.23h.21c28.56,0,31.47-19.06,52.33-19.06,5.64,0,12.58,1.39,21.69,4.92C126.8,26.8,148.45,17,148.45,24.83,148.45,31.21,144.6,31.78,143.19,31.78Z" fill="#733217"/>
        </g>
      </g>
    </g>
  </g>
</svg>
