<svg xmlns="http://www.w3.org/2000/svg" viewBox="0 0 126.85 125.52">
  <g id="Layer_2" data-name="Layer 2">
    <g id="Front_Wing" data-name="Front Wing">
      <g>
        <path d="M5.23,37.07S-13.89,112.18,61,124.72c42.27,7.09,71.63-34.85,60.48-62.54C115,46.18,102.34,32,74.78,22,74.78,22,15.78.51,5.23,37.07Z" fill="#dbdbdb"/>
        <path d="M5.23,21.36S-13.89,96.47,61,109c42.27,7.08,71.63-34.86,60.48-62.55-6.45-16-19.11-30.22-46.67-40.22C74.78,6.25,15.78-15.19,5.23,21.36Z" fill="#ccef5e"/>
        <path d="M61,109C6.31,99.86,1.76,57.34,3.28,35.07,4.89,57.94,15.89,88.19,61,95.75c33,5.54,58.18-18.87,62.28-43C128.25,80,100.16,115.59,61,109Z" opacity="0.1"/>
        <path d="M124.23,45.35l-.39-.93a.54.54,0,0,0,0-.11c-8-18.89-23.24-31.9-48-40.88a3,3,0,0,0-2,5.64A102,102,0,0,1,95,19.4C76.41,34.74,51.55,37,44.7,37.3c-1-2.11-2-4.29-2.9-6.58a3,3,0,1,0-5.59,2.17,84.35,84.35,0,0,0,3.88,8.61,2.55,2.55,0,0,0,.23.43,76.64,76.64,0,0,0,6.29,10c-3.47,5.72-12.38,23.69-5.12,48.39-10.93-4.71-19.43-11.62-25.36-20.7C.06,55.05,8.05,22.43,8.13,22.1a3,3,0,1,0-5.81-1.48C2,22.06-6.42,56.05,11.08,82.9c7.7,11.8,19.18,20.28,34.23,25.33a2.4,2.4,0,0,0,.38.12A98,98,0,0,0,60.47,112a59,59,0,0,0,9.76.81A56.35,56.35,0,0,0,87.81,110a2.86,2.86,0,0,0,.8-.25,57.42,57.42,0,0,0,26.16-18.51C126.25,77,129.88,59.37,124.23,45.35ZM117.87,74a86,86,0,0,1-29.56-1.77C86.13,71.74,84,71.1,82,70.41c10.8-2.38,27.56-7.68,37.94-18.78C121.58,58.57,120.8,66.43,117.87,74ZM100,23a58.2,58.2,0,0,1,17.56,22.12C105.44,61,77.15,65.4,71.91,66.09A60.66,60.66,0,0,1,52.55,49.9l0-.07a66.08,66.08,0,0,1-4.62-6.7C58.11,42.36,81.79,38.84,100,23ZM61.47,106.06a94.36,94.36,0,0,1-12.77-3c-8.25-22.44-1.67-39.29,2-46.11a67.8,67.8,0,0,0,19,14.74,3.44,3.44,0,0,0,.69.35c.6.31,1.19.6,1.79.88,0,5.63.91,21.56,9.6,32.59A51.67,51.67,0,0,1,61.47,106.06ZM110.1,87.47A51.57,51.57,0,0,1,88,103.57c-7.76-8.11-9.46-21.33-9.8-28.12a77.86,77.86,0,0,0,8.65,2.65,91,91,0,0,0,21.37,2.51c2.55,0,4.79-.11,6.64-.25A51.58,51.58,0,0,1,110.1,87.47Z" fill="#295107"/>
      </g>
    </g>
  </g>
</svg>
