<svg xmlns="http://www.w3.org/2000/svg" viewBox="0 0 408.63 253.91">
  <g id="Layer_2" data-name="Layer 2">
    <g id="Hair">
      <g id="_30" data-name="30">
        <path d="M407.45,99.71c-2-2.32-48.46-56.95-76.06-62.28-9.62-1.86-16-1.19-19.78-.19C297.85,20.23,267.27-4.13,206.82.6,148.4,5.15,120.65,45,110.08,65.69c-7-1.46-21.26-1.9-39.8,10.64C46,92.75,3.26,135.72,1.45,137.54a5,5,0,0,0-1.17,5.17c.38,1.07,9.51,26.48,38.95,50.53a5,5,0,0,0,7.45-1.3A91,91,0,0,1,52,184a165.86,165.86,0,0,1,19.7-21.31c-5.1,14.26-7.37,28.94-8.38,39.37-.13,1.38-.24,2.69-.33,3.91a5,5,0,0,0,2.64,4.79q6.75,3.6,13.91,6.67c27.28,11.69,59.1,17.57,95,17.57q12.77,0,26.22-1a5,5,0,0,0,4.62-4.62,291.23,291.23,0,0,1,7.25-45.71c2.77,15.65,5.8,34.06,7.35,43.57a5,5,0,0,0,5.59,4.16c34.7-4.66,65.28-12.61,90.88-23.64a5,5,0,0,0,3-4.13A116.56,116.56,0,0,0,320,189.6a40.92,40.92,0,0,1,4.31,8.48,5,5,0,0,0,7,2.74A192.75,192.75,0,0,0,357,185c.78-.57,1.56-1.16,2.32-1.74a5,5,0,0,0,1.73-5.48c-.22-.71-.46-1.42-.71-2.13A104.63,104.63,0,0,0,350,155.11a148,148,0,0,1,11.85,12.58q1.59,1.88,3.18,3.86a5,5,0,0,0,7.35.49,127.9,127.9,0,0,0,26.39-35.18,5,5,0,0,0,.16-4.14c-.57-1.37-1.22-2.9-1.95-4.55a4.93,4.93,0,0,0,2.5.42,5,5,0,0,0,4.24-3.28c4.7-13,4.93-21.9,4.94-22.27A5,5,0,0,0,407.45,99.71ZM117.25,73.8C125.41,56.27,150.53,15,207.6,10.57c59.3-4.64,87,20.32,98.28,35.6a65.68,65.68,0,0,1,4.35,6.73A212.44,212.44,0,0,1,272.6,77.16a173.46,173.46,0,0,1-98,17.58,184.1,184.1,0,0,1-51.26-13.29c-3.29-1.39-5.93-2.64-7.85-3.6C116,76.71,116.54,75.34,117.25,73.8Zm280,38.16c-13.92-18.67-32.07-30.74-33-31.32a5,5,0,0,0-6.21,7.78c16,15.37,25.84,34.64,30.69,46A116.74,116.74,0,0,1,369.27,161c-2.27-2.67-4.86-5.58-7.69-8.49-8.92-9.21-20.15-18.5-30.78-20.77a5,5,0,0,0-4.73,8.27c.18.2,17.09,18.77,24.23,37.41a179.47,179.47,0,0,1-18.92,12,67,67,0,0,0-15.86-19.74,5,5,0,0,0-7.82,5.6c2,5.59,2.73,14.41,2.06,24.51-23,9.56-50.1,16.64-80.67,21.06-2.71-16.53-7.77-46.84-10.6-60.07a5,5,0,0,0-9.61-.59,294.46,294.46,0,0,0-13.09,64.16c-48.19,3-89.37-4-122.5-20.86,1.25-13.1,5.2-38.93,17.51-56.85a5,5,0,0,0-7-6.9c-.24.18-19.9,14.33-35.39,32.83-2.51,3-4.91,6.11-7.1,9.29-18.66-16.53-27.44-33.16-30.37-39.63,9.4-9.33,44.64-43.87,65-57.62,13.91-9.4,24.31-10.17,29.93-9.54l-.06.16c-.07.18-.14.35-.2.52a1.8,1.8,0,0,0-.08.21c-.07.18-.14.35-.2.52l0,.12c-.15.42-.29.78-.39,1.08a.08.08,0,0,0,0,0l-.13.36,0,.08c0,.08,0,.15-.07.22a.19.19,0,0,0,0,.07,1.12,1.12,0,0,0,0,.13s0,0,0,0l0,.08a5,5,0,0,0-.13,2.5,5,5,0,0,0,2.36,3.31c.22.14,1.51.88,3.78,2a154.94,154.94,0,0,0,16.58,7.19l1.84,15.07,9.22-11.35q2.51.75,5.17,1.49c5.34,1.45,11.18,2.79,17.45,3.9l4.16,12.09,5.23-10.67c1,.12,1.93.25,2.91.36,1.52.17,3.08.32,4.67.46l.28,0c1.54.13,3.11.24,4.71.34l.42,0c1.58.09,3.2.16,4.83.21h.46c1.65,0,3.34.08,5,.08h.6c.77,0,1.54,0,2.32,0h.75c.9,0,1.8,0,2.72-.07l.86,0,2.81-.13.58,0,2.53-.17.78,0q1.44-.1,2.88-.24l.86-.08,3-.31.45-.05,2.78-.34.8-.11c1-.13,2-.28,3-.43l.8-.13c1-.16,2.06-.32,3.09-.5l.36-.07,3.11-.57.79-.15c1.06-.21,2.13-.43,3.2-.67l.76-.16c1-.23,2.11-.47,3.17-.73l.29-.07c1.12-.27,2.25-.55,3.38-.85l.78-.2c1.11-.3,2.23-.6,3.36-.92l.67-.2c1.09-.31,2.17-.64,3.27-1l.36-.12c1.16-.36,2.33-.74,3.5-1.13l.76-.25c1.16-.39,2.32-.79,3.49-1.21l.59-.22c1.12-.41,2.24-.82,3.37-1.26l.42-.16c1.19-.46,2.39-.94,3.59-1.43l.75-.31q1.8-.75,3.6-1.53l.51-.23,1.84-.84,12.34,12.34,2.69-19.7,0-.25c1.11-.62,2.22-1.25,3.33-1.9l.75-.44c1.25-.73,2.5-1.49,3.76-2.26l.31-.2c1.2-.74,2.4-1.5,3.6-2.27l.64-.42c1.24-.81,2.47-1.63,3.71-2.47l.75-.52c1.27-.87,2.54-1.75,3.82-2.67l.17-.12c1.24-.89,2.47-1.8,3.71-2.73l.7-.52c1.24-.94,2.48-1.89,3.72-2.87l.73-.58c1.29-1,2.58-2,3.86-3.11a5,5,0,0,0,1.46-5.72.59.59,0,0,0-.05-.12.34.34,0,0,1,0-.08l-.1-.22a1,1,0,0,0-.05-.12c-.06-.14-.13-.3-.22-.49v0c-.08-.18-.18-.38-.29-.6l-.09-.2q-.13-.28-.3-.6l-.12-.23-.48-.92a.56.56,0,0,0-.05-.08c-.16-.3-.33-.62-.51-.94l-.2-.35c-.15-.27-.31-.54-.48-.83l-.15-.26a45.08,45.08,0,0,1,11.5.91c19.4,3.75,55.14,41.28,69,57.37A65,65,0,0,1,397.23,112Z" fill="#733217"/>
        <path d="M310.23,52.9C286,72.23,260.39,85.06,233.56,91.33l-.14,0a174.18,174.18,0,0,1-58.83,3.37,183.63,183.63,0,0,1-53.34-14.19c-1.75-.77-3.28-1.48-4.56-2.11l-1.21-.59.37-.89c.4-.94.87-2,1.4-3.16C125.41,56.27,150.53,15,207.6,10.57q5-.37,9.6-.5a140.32,140.32,0,0,1,37.32,3.65h0c28.13,6.9,43.62,22,51.35,32.45A65.68,65.68,0,0,1,310.23,52.9Z" fill="#ddb8b0"/>
        <path d="M357.62,81.7a5,5,0,0,0,.45,6.72c16,15.37,25.84,34.64,30.69,46A116.74,116.74,0,0,1,369.27,161c-9.45-11.14-24.48-26.27-38.47-29.26a5,5,0,0,0-4.73,8.27c.18.2,17.09,18.77,24.23,37.41a179.47,179.47,0,0,1-18.92,12,67,67,0,0,0-15.86-19.74,5,5,0,0,0-7.82,5.6c2,5.59,2.73,14.41,2.06,24.51-23,9.56-50.1,16.64-80.67,21.06-1.36-8.28-3.31-20-5.26-31.34s-3.93-22.13-5.34-28.73a5,5,0,0,0-9.61-.59,265.56,265.56,0,0,0-8.34,31.88,297.41,297.41,0,0,0-4.75,32.28c-29.15,1.82-55.74,0-79.53-5.51a186.48,186.48,0,0,1-43-15.35c1.25-13.1,5.2-38.93,17.51-56.85a5,5,0,0,0-7-6.9C83.49,140,57,159,41.28,181.86A136.58,136.58,0,0,1,30.36,171a115.78,115.78,0,0,1-19.45-28.81c7.88-7.82,33.94-33.38,54.14-49.53,3.88-3.11,7.55-5.87,10.83-8.09,13.91-9.4,24.31-10.17,29.93-9.54l-.06.16c-.07.18-.14.35-.2.52a1.8,1.8,0,0,0-.08.21c-.07.18-.14.35-.2.52l0,.12c-.15.42-.29.78-.39,1.08a.08.08,0,0,0,0,0l-.13.36,0,.08c0,.08,0,.15-.07.22a.19.19,0,0,0,0,.07,1.12,1.12,0,0,0,0,.13s0,0,0,0l0,.08a5,5,0,0,0-.13,2.5,5,5,0,0,0,2.36,3.31,136.83,136.83,0,0,0,20.36,9.22l1.84,15.07,9.22-11.35q2.51.75,5.17,1.49c5.34,1.45,11.18,2.79,17.45,3.9l4.16,12.09,5.23-10.67c1,.12,1.93.25,2.91.36,1.52.17,3.08.32,4.67.46l.28,0c1.24.1,2.5.2,3.78.28l.93.06.42,0c1.58.09,3.2.16,4.83.21h.46c1.65,0,3.34.08,5,.08h.6c.77,0,1.54,0,2.32,0h.75c.9,0,1.8,0,2.72-.07l.86,0,2.81-.13.58,0,2.53-.17.78,0q1.44-.1,2.88-.24l.86-.08,3-.31.45-.05,2.78-.34.8-.11c1-.13,2-.28,3-.43l.8-.13c1-.16,2.06-.32,3.09-.5l.36-.07,3.11-.57.79-.15c1.06-.21,2.13-.43,3.2-.67l.76-.16c1-.23,2.11-.47,3.17-.73l.29-.07c1.12-.27,2.25-.55,3.38-.85l.78-.2c1.11-.3,2.23-.6,3.36-.92l.67-.2c1.09-.31,2.17-.64,3.27-1l.36-.12c1.16-.36,2.33-.74,3.5-1.13l.76-.25c1.16-.39,2.32-.79,3.49-1.21l.59-.22c1.12-.41,2.24-.82,3.37-1.26l.42-.16c1.19-.46,2.39-.94,3.59-1.43l.75-.31q1.8-.75,3.6-1.53l.51-.23,1.84-.84,12.34,12.34,1.27-9.34L286.1,81.2c1.11-.62,2.22-1.25,3.33-1.9l.75-.44,1.91-1.13,1.85-1.13.31-.2c1.2-.74,2.4-1.5,3.6-2.27l.64-.42c1.24-.81,2.47-1.63,3.71-2.47l.75-.52c1.27-.87,2.54-1.75,3.82-2.67l.17-.12c1.24-.89,2.47-1.8,3.71-2.73l.7-.52c1.24-.94,2.48-1.89,3.72-2.87l.73-.58c1.29-1,2.58-2,3.86-3.11a5,5,0,0,0,1.46-5.72.59.59,0,0,0-.05-.12.34.34,0,0,1,0-.08l-.1-.22a1,1,0,0,0-.05-.12c-.06-.14-.13-.3-.22-.49v0c-.08-.18-.18-.38-.29-.6l-.09-.2q-.13-.28-.3-.6l-.12-.23-.48-.92a.56.56,0,0,0-.05-.08c-.16-.3-.33-.62-.51-.94l-.2-.35c-.15-.27-.31-.54-.48-.83l-.15-.26a45.08,45.08,0,0,1,11.5.91c19.4,3.75,55.14,41.28,69,57.37a65,65,0,0,1-1.26,7.34c-13.92-18.67-32.07-30.74-33-31.32A5,5,0,0,0,357.62,81.7Z" fill="#ffec51"/>
        <path d="M200.54,192.07a297.41,297.41,0,0,0-4.75,32.28c-29.15,1.82-55.74,0-79.53-5.51C134.44,219.06,181.78,217.1,200.54,192.07Z" fill="#ffc00e"/>
        <path d="M398.49,104.62a65,65,0,0,1-1.26,7.34,119.9,119.9,0,0,0-8-9.63,147.12,147.12,0,0,0-24.94-21.69,5,5,0,0,0-6.21,7.78c11.75,11.29,20.18,24.69,25.76,35.5,2,3.91,3.65,7.48,4.93,10.49A116.74,116.74,0,0,1,369.27,161c-1.73-2-3.66-4.22-5.72-6.43-9.21-9.85-21.33-20.39-32.75-22.83a5,5,0,0,0-4.73,8.27c.16.17,12.92,14.19,21,30.08a77.83,77.83,0,0,1,3.27,7.33,179.47,179.47,0,0,1-18.92,12,57.7,57.7,0,0,0-3.19-5.47,68.08,68.08,0,0,0-12.67-14.27,5,5,0,0,0-7.82,5.6c1.68,4.68,2.46,11.64,2.27,19.72,0,1.56-.1,3.16-.21,4.79a281.88,281.88,0,0,1-33.39,11.36h0a389.31,389.31,0,0,1-47.27,9.7c-1.36-8.28-3.31-20-5.26-31.34,15.63-2.61,71.14-15.17,66.44-61.72,0,0,14.81,1.36,9.19-15.66,0,0,7.62-14.24-7.37-34.4l1.85-1.13.31-.2c1.2-.74,2.4-1.5,3.6-2.27l.64-.42c1.24-.81,2.47-1.63,3.71-2.47l.75-.52c1.27-.87,2.54-1.75,3.82-2.67l.17-.12c1.24-.89,2.47-1.8,3.71-2.73l.7-.52c1.24-.94,2.48-1.89,3.72-2.87l.73-.58c1.29-1,2.58-2,3.86-3.11a5,5,0,0,0,1.46-5.72.59.59,0,0,0-.05-.12.34.34,0,0,1,0-.08l-.1-.22a1,1,0,0,0-.05-.12c-.06-.14-.13-.3-.22-.49v0c-.08-.18-.18-.38-.29-.6l-.09-.2q-.13-.28-.3-.6l-.12-.23-.48-.92a.56.56,0,0,0-.05-.08c-.16-.3-.33-.62-.51-.94l-.2-.35c-.15-.27-.31-.54-.48-.83l-.15-.26a45.08,45.08,0,0,1,11.5.91c16,3.1,43.23,29.27,60,47.34C393,98.39,396.08,101.83,398.49,104.62Z" fill="#ffc00e"/>
        <path d="M287,111.79c-1.53-5.28-3.66-10.64-3.66-10.64l1.27-9.34.35.57C290.27,101.06,287,111.79,287,111.79Z" fill="#ffc00e"/>
        <path d="M280.06,44.21a56.33,56.33,0,0,0-25.53-30.49c28.13,6.9,43.62,22,51.35,32.45a65.68,65.68,0,0,1,4.35,6.73C286,72.23,260.39,85.06,233.56,91.33,236.63,90.33,290.23,72.49,280.06,44.21Z" fill="#c68379"/>
        <path d="M22.36,146.51l8,24.53a115.78,115.78,0,0,1-19.45-28.81c7.88-7.82,33.94-33.38,54.14-49.53Z" fill="#fff" opacity="0.7"/>
        <path d="M181.78,105.39l-13.42,21.16-3.45-11.61,5.23-10.67c1,.12,1.93.25,2.91.36,1.52.17,3.08.32,4.67.46l.28,0C179.24,105.21,180.5,105.31,181.78,105.39Z" fill="#ffc00e"/>
        <path d="M276.91,94.68C237.17,107,203.52,105.5,203.52,105.5l.58,0,2.53-.17.78,0q1.44-.1,2.88-.24l.86-.08,3-.31.45-.05,2.78-.34.8-.11c1-.13,2-.28,3-.43l.8-.13c1-.16,2.06-.32,3.09-.5l.36-.07,3.11-.57.79-.15c1.06-.21,2.13-.43,3.2-.67l.76-.16c1-.23,2.11-.47,3.17-.73l.29-.07c1.12-.27,2.25-.55,3.38-.85l.78-.2c1.11-.3,2.23-.6,3.36-.92l.67-.2c1.09-.31,2.17-.64,3.27-1l.36-.12c1.16-.36,2.33-.74,3.5-1.13l.76-.25c1.16-.39,2.32-.79,3.49-1.21l.59-.22c1.12-.41,2.24-.82,3.37-1.26l.42-.16c1.19-.46,2.39-.94,3.59-1.43l.75-.31q1.8-.75,3.6-1.53l.51-.23,1.84-.84Z" fill="#ffc00e"/>
        <path d="M188.15,34.11c4,5.54-1.49,16.48-12.38,24.43s-23,9.91-27.05,4.37c-2.61-3.57-1.22-9.37,3-15.18a211.25,211.25,0,0,0-30.46,32.82c-1.75-.77-3.28-1.48-4.56-2.11L115.85,77c.4-.94.87-2,1.4-3.16C125.41,56.27,150.53,15,207.6,10.57q5-.37,9.6-.5a171.83,171.83,0,0,0-47.09,23.28C178,30,185.21,30.08,188.15,34.11Z" fill="#fff" opacity="0.7"/>
        <path d="M276.37,211.15A314.48,314.48,0,0,0,310,195c0,1.56-.1,3.16-.21,4.79A281.88,281.88,0,0,1,276.37,211.15Z" fill="#fff" opacity="0.7"/>
        <path d="M347,170.1a77.83,77.83,0,0,1,3.27,7.33,179.47,179.47,0,0,1-18.92,12,57.7,57.7,0,0,0-3.19-5.47A218.39,218.39,0,0,0,347,170.1Z" fill="#fff" opacity="0.7"/>
        <path d="M383.83,123.92c2,3.91,3.65,7.48,4.93,10.49A116.74,116.74,0,0,1,369.27,161c-1.73-2-3.66-4.22-5.72-6.43C372.05,145.36,379.19,135.12,383.83,123.92Z" fill="#fff" opacity="0.7"/>
        <path d="M398.49,104.62a65,65,0,0,1-1.26,7.34,119.9,119.9,0,0,0-8-9.63,68.36,68.36,0,0,0,.28-7.74C393,98.39,396.08,101.83,398.49,104.62Z" fill="#fff" opacity="0.7"/>
        <path d="M357,185c-5.29,11.74-14.38,22.56-26.46,32l-4.73-9.06v12.59c-26.13,18.49-64.21,30.89-107.25,33.09l-7.56-17-1.83,17.32c-1.47,0-2.94,0-4.42,0-51,0-96.33-14.29-125.12-36.45,27.28,11.69,59.1,17.57,95,17.57q12.77,0,26.22-1a5,5,0,0,0,4.62-4.62,291.23,291.23,0,0,1,7.25-45.71c2.77,15.65,5.8,34.06,7.35,43.57a5,5,0,0,0,5.59,4.16c34.7-4.66,65.28-12.61,90.88-23.64a5,5,0,0,0,3-4.13A116.56,116.56,0,0,0,320,189.6a40.92,40.92,0,0,1,4.31,8.48,5,5,0,0,0,7,2.74A192.75,192.75,0,0,0,357,185Z" opacity="0.1"/>
      </g>
    </g>
  </g>
</svg>