<svg xmlns="http://www.w3.org/2000/svg" viewBox="0 0 479.58 253.62">
  <g id="Layer_2" data-name="Layer 2">
    <g id="Hair">
      <g id="_25" data-name="25">
        <path d="M474.63,146.71c-4.87-11.31-12.68-20-21.63-24.22a23.31,23.31,0,0,0,8-7.83c3.85-6.44,3.92-14.33.19-23.47-7.45-18.27-22.11-23.38-33.27-23.59a63,63,0,0,0,3.12-13.74c1.72-16.65-4.73-29.83-18.65-38.1-18.1-10.75-38.33-10.58-58.51.5a94.43,94.43,0,0,0-15,10.37c-.57-11.08-4.71-22.82-17.14-26-7.62-1.93-14.23.43-18.16,6.49-4.08,6.3-4.64,16.1-2.16,25.07-24.73-7.58-53.23-2.91-71.63,7.5-13.47,7.61-20.88,18-20.31,28.36a59,59,0,0,0,2.43,14.11C198.12,64.75,169.8,36,121.69,16.53,98.11,7,72,4.49,48.29,9.42,26.88,13.87,10,23.83,3.19,36.06c-6.43,11.52-3,23.75,9.15,32.71,11.4,8.4,22,12.35,31.22,13.83-3.39,4.34-6.47,10-6.13,15.82.21,3.76,1.94,9.15,9,13.47.39.25.82.46,1.23.68-3,3.87-6.13,9.42-6.36,15.8s2.36,12.16,7.69,17.26c7.21,6.9,15,10,23.19,9.18s14.92-5.44,19.42-9.58a28,28,0,0,0,11.09,11.55q8,4.56,19.23,4.56c12.56,0,28.11-4.3,46.49-12.85a50.4,50.4,0,0,0,6,.36,61,61,0,0,0,29.75-8.14c6.85,4.83,26.44,22.09,27.44,61.84-6.71,3-22.46,10.58-30.19,18.32l-.18.18c-.89,1-8.73,9.95-7.9,19.11a14,14,0,0,0,5.17,9.68,11.3,11.3,0,0,0,6.84,3.6,14.6,14.6,0,0,0,2.31.18c6,0,13.11-3.39,21.31-10.12,16.84-13.8,29.72-21.75,66.5-15.78,14.57,2.36,24.13.82,28.41-4.59a10.21,10.21,0,0,0,1.24-10.52c-3.24-7.85-14.29-14.17-27.5-15.73-15.41-1.82-24.74-1.92-30.06-1.63-.14-11.06,1.67-37.61,20.75-51.56A50.51,50.51,0,0,0,299,152.1c11.95,7.14,23,8.6,32.59,7.23,2.72,10.09,11,22.95,29.29,23.84.83,11.41,7.34,28,28.56,33.8a36,36,0,0,0,9.32,1.38c5.15,0,9.31-1.54,12.41-4.63,4.21-4.18,5.31-10.18,5.32-15.29a84,84,0,0,0,21.57,6.07,56.6,56.6,0,0,0,7.82.57c16.66,0,28.23-8.36,32.25-23.67C480.92,171,479.63,158.31,474.63,146.71Zm-366.87,1.47a18.33,18.33,0,0,1-9.18-13.08,5,5,0,0,0-9.07-2.43c-.08.11-8,11.2-18.39,12.19-5.2.5-10.19-1.61-15.25-6.45-3.22-3.08-4.72-6.23-4.61-9.64.16-4.93,3.75-9.78,6.33-12.5a58.22,58.22,0,0,0,12.68,1.33,78.62,78.62,0,0,0,31.84-6.95,21.62,21.62,0,0,0,13.38,11.93,46.89,46.89,0,0,0,15.14,2.47,53.94,53.94,0,0,0,14.2-2c-1.59,7.55-.69,15.82,7.28,20.24.46.25.92.46,1.38.7C128.07,154,114.67,152.05,107.76,148.18Zm102-24.4C198,136.6,174,144,157,134.58c-5.28-2.92-1.56-12.59,0-16.19a52.58,52.58,0,0,0,7.32-4.36,5,5,0,0,0-6-8,47.8,47.8,0,0,1-7.37,4.19h0c-7.44,3.48-19.59,7.2-32.28,2.91a12,12,0,0,1-7.81-7.36,38.92,38.92,0,0,0,10.33-9.92A5,5,0,1,0,113,90.17c-9.18,13.37-38.18,20.89-55.4,15.77h0a24.58,24.58,0,0,1-5.91-2.55c-4-2.49-4.18-4.77-4.22-5.52-.27-4.67,5.18-11.06,9.33-14.66A54.31,54.31,0,0,0,63,82.37a50.31,50.31,0,0,0,20.85-9,5,5,0,0,0-6.31-7.76c-.59.48-9,7-22.58,7.72a6,6,0,0,0-.74,0c-9.76.32-22.07-2.45-35.93-12.65C10.09,54.69,8,48,11.92,40.93c10.51-18.82,58.16-34.46,106-15.13,68.15,27.52,95.27,75.75,95.53,76.23a2.55,2.55,0,0,0,.24.39C219.46,111,213.7,119.48,209.76,123.78Zm69.93,2.68a29,29,0,0,0,2.79,9.06c-29.22,21.11-24.87,64-24.66,65.86a5,5,0,0,0,2.18,3.7,4.8,4.8,0,0,0,4.13.57c.73-.16,8.7-1.62,32.29,1.16,13.1,1.55,19.61,8.06,19.58,10.13-.6.81-5.28,3.13-19,.91-40.73-6.61-56.55,3.26-74.44,17.92-10.54,8.64-15.56,8.32-16.58,7.49a5,5,0,0,0-.94-.95,4,4,0,0,1-1.81-3c-.38-4,3.72-9.66,5.29-11.44,8.45-8.36,29.77-17.33,30-17.42a5,5,0,0,0,3.07-4.61c0-41.9-18.79-62.87-28.88-71.09a48.43,48.43,0,0,0,4.38-4.18,37.92,37.92,0,0,0,6.13-8.81A139.91,139.91,0,0,1,244.1,144.9a5,5,0,0,0,4.14,2.2,4.66,4.66,0,0,0,1-.11,5,5,0,0,0,3.88-4c1.41-7.9,12.75-24.91,18.22-32.51a109.14,109.14,0,0,0,11.45-3.25A35.62,35.62,0,0,0,279.69,126.46Zm-54.8-23.81a37.8,37.8,0,0,0,5.07,3.66c6.15,3.71,15.19,6.76,27.93,6.08a160.29,160.29,0,0,0-11.24,19.34A148.19,148.19,0,0,0,226.09,111,22.76,22.76,0,0,0,224.89,102.65Zm179.27,104c-2.6,2.57-8,1.79-12.06.69-23-6.25-21.27-27.81-21.18-28.71a5,5,0,0,0-5.34-5.49c-17.05,1.24-22.51-10-24.23-16.22a62.92,62.92,0,0,0,19.85-12c6.11,11.06,20.89,34,44.84,48.17C406.7,197,407.12,203.7,404.16,206.63Zm64.34-27.77c-3.28,12.5-13.31,17.93-29,15.74-47.67-6.67-72.15-59.56-72.39-60.09a5,5,0,0,0-8.42-1.12c-.61.74-9.9,11.71-24.27,15.29l-.29.07c-8.48,2-18.71,1.49-29.95-5.24-8.68-5.19-13.59-11.37-14.57-18.37-1.79-12.71,9.41-24.85,9.51-25a5,5,0,0,0-5.73-8,120.16,120.16,0,0,1-25.67,8.86h-.06c-13.25,2.74-24.27,1.65-32.54-3.33-9.35-5.62-14.91-16.35-15.66-30.21-.36-6.47,5.2-13.43,15.24-19.11,20.77-11.74,55.9-15.36,80.11,1.06,37.08,25.15,47,53,47.09,53.3a5,5,0,0,0,9.47-3.21c-.42-1.26-10.87-31.18-50.95-58.37-1.8-1.22-3.66-2.34-5.56-3.37-5.66-7.86-6.28-20-2.9-25.24,1.06-1.64,2.85-3.37,7.32-2.24,13.33,3.38,8.87,27.67,8.83,27.91a5,5,0,0,0,8.72,4.19A86.34,86.34,0,0,1,359,24.9c17.05-9.29,33.32-9.47,48.34-.54,25.11,14.91,9.07,45.39,8.38,46.67a5,5,0,0,0,5.61,7.24c.89-.22,21.77-5.11,30.66,16.7,2.47,6,2.64,10.94.51,14.52-3,5.08-10.46,7.26-14,7.85-23.4-6.79-36.19-3.46-36.8-3.29a5,5,0,0,0,2.61,9.65c.15,0,15.26-3.7,43.27,7.31C462.58,136.94,473.17,161.09,468.5,178.86Z" fill="#733217"/>
        <path d="M404.16,206.63c-2.6,2.57-8,1.79-12.06.69-23-6.25-21.27-27.81-21.18-28.71a5,5,0,0,0-5.34-5.49c-17.05,1.24-22.51-10-24.23-16.22a62.92,62.92,0,0,0,19.85-12c6.11,11.06,20.89,34,44.84,48.17C406.7,197,407.12,203.7,404.16,206.63Z" fill="#ffc00e"/>
        <path d="M468.5,178.86c-3.28,12.5-13.31,17.93-29,15.74-23.63-3.31-41.56-18-53.66-32a132.89,132.89,0,0,1-18.73-28.11,5,5,0,0,0-8.42-1.12c-.61.74-9.9,11.71-24.27,15.29l-.29.07c-8.48,2-18.71,1.49-29.95-5.24-8.68-5.19-13.59-11.37-14.57-18.37-1.79-12.71,9.41-24.85,9.51-25a5,5,0,0,0-5.73-8,120.16,120.16,0,0,1-25.67,8.86h-.06c-13.25,2.74-24.27,1.65-32.54-3.33-9.35-5.62-14.91-16.35-15.66-30.21-.36-6.47,5.2-13.43,15.24-19.11,20.77-11.74,55.9-15.36,80.11,1.06,37.08,25.15,47,53,47.09,53.3a5,5,0,0,0,6.33,3.12,5,5,0,0,0,3.14-6.33C371,98.41,362.09,73,329.41,47.71h0q-4.22-3.27-9-6.5c-1.8-1.22-3.66-2.34-5.56-3.37-5.66-7.86-6.28-20-2.9-25.24,1.06-1.64,2.85-3.37,7.32-2.24,13.33,3.38,8.87,27.67,8.83,27.91a5,5,0,0,0,8.72,4.19A86.34,86.34,0,0,1,359,24.9c17.05-9.29,33.32-9.47,48.34-.54,25.11,14.91,9.07,45.39,8.38,46.67a5,5,0,0,0,5.61,7.24,28.19,28.19,0,0,1,9.07-.45c7,.74,16.37,4.34,21.59,17.15,2.47,6,2.64,10.94.51,14.52-3,5.08-10.46,7.26-14,7.85a114.44,114.44,0,0,0-14.12-3.19c-14.4-2.27-22.21-.23-22.68-.1a5,5,0,0,0,2.61,9.65c.14,0,12.52-3,35.63,4.55,2.43.8,5,1.71,7.64,2.76C462.58,136.94,473.17,161.09,468.5,178.86Z" fill="#ffec51"/>
        <path d="M316,216.94c-.6.81-5.28,3.13-19,.91-40.73-6.61-56.55,3.26-74.44,17.92-10.54,8.64-15.56,8.32-16.58,7.49a5,5,0,0,0-.94-.95,4,4,0,0,1-1.81-3c-.38-4,3.72-9.66,5.29-11.44,8.45-8.36,29.77-17.33,30-17.42a5,5,0,0,0,3.07-4.61c0-41.9-18.79-62.87-28.88-71.09a48.43,48.43,0,0,0,4.38-4.18,37.92,37.92,0,0,0,6.13-8.81A139.91,139.91,0,0,1,244.1,144.9a5,5,0,0,0,4.14,2.2,4.66,4.66,0,0,0,1-.11,5,5,0,0,0,3.88-4c1.41-7.9,12.75-24.91,18.22-32.51a109.14,109.14,0,0,0,11.45-3.25,35.62,35.62,0,0,0-3.14,19.24,29,29,0,0,0,2.79,9.06c-29.22,21.11-24.87,64-24.66,65.86a5,5,0,0,0,2.18,3.7,4.8,4.8,0,0,0,4.13.57c.73-.16,8.7-1.62,32.29,1.16C309.52,208.36,316,214.87,316,216.94Z" fill="#ffc00e"/>
        <path d="M153.49,144c-25.42,10-38.82,8-45.73,4.15a18.33,18.33,0,0,1-9.18-13.08,5,5,0,0,0-9.07-2.43c-.08.11-8,11.2-18.39,12.19-5.2.5-10.19-1.61-15.25-6.45-3.22-3.08-4.72-6.23-4.61-9.64.16-4.93,3.75-9.78,6.33-12.5a58.22,58.22,0,0,0,12.68,1.33l1.56,0a78.88,78.88,0,0,0,30.28-6.93,21.62,21.62,0,0,0,13.38,11.93A46.78,46.78,0,0,0,128.92,125q.86,0,1.71,0a53.94,53.94,0,0,0,14.2-2c-1.59,7.55-.69,15.82,7.28,20.24C152.57,143.58,153,143.79,153.49,144Z" fill="#ffec51"/>
        <path d="M209.76,123.78C198,136.6,174,144,157,134.58c-5.28-2.92-1.56-12.59,0-16.19a52.58,52.58,0,0,0,7.32-4.36,5,5,0,0,0-6-8,45.49,45.49,0,0,1-5.91,3.48h0c-.45.23-.94.46-1.44.7h0c-7.44,3.48-19.59,7.2-32.28,2.91a12,12,0,0,1-7.81-7.36,38.92,38.92,0,0,0,10.33-9.92l.11-.16a5,5,0,0,0-8.35-5.5,27.24,27.24,0,0,1-6.11,6.18,56.3,56.3,0,0,1-18.81,8.7s0,0,0,0c-10.49,2.86-21.93,3.43-30.47.89h0a24.58,24.58,0,0,1-5.91-2.55c-4-2.49-4.18-4.77-4.22-5.52-.22-3.89,3.52-9,7.17-12.64.73-.74,1.47-1.42,2.16-2A54.31,54.31,0,0,0,63,82.37a50.31,50.31,0,0,0,20.85-9l.06-.06.18-.16.2-.19a5,5,0,0,0-6.75-7.35c-.59.48-9,7-22.58,7.72a6,6,0,0,0-.74,0c-9.76.32-22.07-2.45-35.93-12.65C10.09,54.69,8,48,11.92,40.93c10.51-18.82,58.16-34.46,106-15.13,68.15,27.52,95.27,75.75,95.53,76.23a2.55,2.55,0,0,0,.24.39C219.46,111,213.7,119.48,209.76,123.78Z" fill="#ffec51"/>
        <path d="M106.86,96.35c-12.43,9.35-34.95,13.86-49.29,9.59h0a24.58,24.58,0,0,1-5.91-2.55c-4-2.49-4.18-4.77-4.22-5.52-.22-3.89,3.52-9,7.17-12.64C57.93,89.61,71.34,103,106.86,96.35Z" fill="#ffec51"/>
        <path d="M153.49,144c-25.42,10-38.82,8-45.73,4.15a18.33,18.33,0,0,1-9.18-13.08,5,5,0,0,0-9.07-2.43c-.08.11-8,11.2-18.39,12.19-5.2.5-10.19-1.61-15.25-6.45-3.22-3.08-4.72-6.23-4.61-9.64.16-4.93,3.75-9.78,6.33-12.5a58.22,58.22,0,0,0,12.68,1.33l1.56,0c-3.26,2.34-7.73,6.68-3.59,10.74,11.74,11.49,29.11-6.9,29.11-6.9s10.21,17.87,20.68,12.51A29.8,29.8,0,0,0,128.92,125q.86,0,1.71,0a53.94,53.94,0,0,0,14.2-2c-1.59,7.55-.69,15.82,7.28,20.24C152.57,143.58,153,143.79,153.49,144Z" fill="#ffc00e"/>
        <path d="M452.46,109.49c-3,5.08-10.46,7.26-14,7.85a114.44,114.44,0,0,0-14.12-3.19c8.42-4.19,24.15-15.53,6-36.33,7,.74,16.37,4.34,21.59,17.15C454.42,101,454.59,105.91,452.46,109.49Z" fill="#ffc00e"/>
        <path d="M421.29,78.27s-6.07,7.66-23.17,13.53c.54-.59,20.85-23,13.27-44.17C400.41,17,359,24.9,359,24.9c17.05-9.29,33.32-9.47,48.34-.54,25.11,14.91,9.07,45.39,8.38,46.67a5,5,0,0,0,5.61,7.24Z" fill="#ffc00e"/>
        <path d="M384.58,118.36l-13.26-15.5a4.94,4.94,0,0,0,0-3.29C371,98.41,362.09,73,329.41,47.71c1.26.62,41.56,20.59,52.87,51.75C382.28,99.46,385.6,111.46,384.58,118.36Z" fill="#ffc00e"/>
        <ellipse cx="65.68" cy="36.93" rx="32.93" ry="13.01" fill="#fff" opacity="0.7"/>
        <ellipse cx="266.36" cy="57.61" rx="32.93" ry="13.01" fill="#fff" opacity="0.7"/>
        <ellipse cx="125.36" cy="46.37" rx="7.71" ry="19.53" transform="translate(31.93 141.96) rotate(-65.96)" fill="#fff" opacity="0.7"/>
        <path d="M152.44,109.49c-.45.23-.94.46-1.44.7h0c-7.44,3.48-19.59,7.2-32.28,2.91a12,12,0,0,1-7.81-7.36,38.92,38.92,0,0,0,10.33-9.92l.11-.16c.72-1,4.57-6.43,5.39-10.25,0,0,2.93,12.26-.51,19.28C126.2,104.7,138.12,113.49,152.44,109.49Z" fill="#ffc00e"/>
        <path d="M88,105.05c-10.49,2.86-21.93,3.43-30.47.89h0a24.58,24.58,0,0,1-5.91-2.55c-4-2.49-4.18-4.77-4.22-5.52-.22-3.89,3.52-9,7.17-12.64.73-.74,1.47-1.42,2.16-2A54.31,54.31,0,0,0,63,82.37a50.31,50.31,0,0,0,20.85-9l.06-.06.18-.16.2-.19c1.36-1.21,5.53-5,7.59-7,0,0,1.4,15.19-16.09,21.32s-16.85,2.55-16.85,2.55S54.5,107.45,88,105.05Z" fill="#ffc00e"/>
        <path d="M447.52,131c-2.66-1-5.21-2-7.64-2.76,6,4.95,16.44,15,17.84,25.81-4.15-4-11.23-6.6-19.27-6.6-12.78,0-23.15,6.63-23.15,14.81,0,7.84,9.52,14.25,21.57,14.77-16.46,1.11-41.16-9.71-51-14.42,12.1,14,30,28.67,53.66,32,15.7,2.19,25.73-3.24,29-15.74C473.17,161.09,462.58,136.94,447.52,131Z" fill="#ffc00e"/>
      </g>
    </g>
  </g>
</svg>