<svg xmlns="http://www.w3.org/2000/svg" viewBox="0 0 410.11 377.63">
  <g id="Layer_2" data-name="Layer 2">
    <g id="Hair">
      <g id="_18" data-name="18">
        <path d="M410.07,214.94c-.19-1.36-4.82-33.55-22.29-46.65a5,5,0,0,0-8,3.94c-.12,9.38-1.73,26.14-5.5,32.13-2.39,2.2-15.68,14-28.84,18.1-7-5.06-13.53-9.28-19.5-12.85,33.34-29.65,32.77-84.3,32.73-86.74a5.71,5.71,0,0,0-.14-1.09C345,66,314.61,32.93,313.33,31.55a5.13,5.13,0,0,0-1.09-.88c-38.55-23.13-76.59-23-78.19-22.93a5,5,0,0,0-4.18,7.65c13.24,21.18,21,48.47,22.62,54.62-10.75,36.58-35.84,50.53-44.1,54.24,18.41-24.69,17.45-63.59,17.39-65.45,0-.19,0-.38-.05-.57-5.1-34.72-28.58-56.07-29.58-57a5,5,0,0,0-8.33,3.55c-1,29.87-18.14,54.58-50.79,73.44A193.17,193.17,0,0,1,86.8,98.07a4.5,4.5,0,0,0-.63.17C41.93,113.72,6.56,165.52,5.08,167.72a4.93,4.93,0,0,0-.7,1.55c-11.79,45.8,3.88,92.87,4.55,94.85a5.14,5.14,0,0,0,.55,1.13C29.64,296.1,62,305.14,70.19,307c14.39,16.83,27.1,25,27.92,25.54a5,5,0,0,0,4.8.3c.61-.29,12.87-6.14,30-20.12,0,.42-.07.71-.08.83a5,5,0,0,0,5,5.43h37.44c7.89,6.5,45.39,33.79,119.44,35H295A126.58,126.58,0,0,0,334.65,344a106,106,0,0,0,37.87-26.73,4.83,4.83,0,0,0,.51-.68c1.43-2.31,35-57,37.08-100.74A5.67,5.67,0,0,0,410.07,214.94ZM18.22,260.33c-1.72-5.42-14.33-47.72-4.37-87.71,4.32-6.15,36.95-51.24,75.33-64.84A200.29,200.29,0,0,0,141.8,87.05c31.3-18,50.06-42.18,54.85-70.38,6.75,8.5,16.23,23.41,19.14,42.71.06,3.76.2,45.58-20.84,64.93-30.32-.82-72.3,3.68-74.34,3.9a5,5,0,0,0-1.14.26c-61.24,21.91-79.8,77.27-80.56,79.61a5.32,5.32,0,0,0-.24,1.37,207.91,207.91,0,0,0,7.09,59.81,5.12,5.12,0,0,0,.3.77,171.72,171.72,0,0,0,13.39,23C47.39,288.1,30.25,278.42,18.22,260.33Zm117.17,37c-15.84,14.34-29,22.2-34.24,25.09l-2-1.46a158.35,158.35,0,0,1-43.95-54.94,202.6,202.6,0,0,1-6.61-55.5c2.17-6,20.91-53.32,73.64-72.47,6.09-.64,57.68-5.86,84.51-3.05l27.55,7.36-8-17.19c12.41-9,28.23-25.49,36.16-53.79a4.9,4.9,0,0,0,0-2.55c-.3-1.21-6.76-27.07-19.43-50.6a157.51,157.51,0,0,1,63.37,20.6c3.76,4.26,30.17,35.54,42.21,84.7,0,5.68-1.1,56.22-32,80.8-22.82-12.12-35.66-13.23-36.39-13.29h-.48c-55.52,1.35-105.17,29.47-107.25,30.66a4.89,4.89,0,0,0-1.18.94C153,242.44,143.2,267.25,138.12,286,137,290.1,136.1,294,135.39,297.37ZM364.75,311c-10.79,12-24,19.7-36,24.58A120.3,120.3,0,0,1,294.66,344C238.3,343,204,326,189.13,316.54l18.19-9L177.11,309h-33.6a186.17,186.17,0,0,1,5.09-23c4.93-17.07,13.81-38.74,29.53-55.91,6-3.27,52-27.67,101.57-29,2.3.28,24.54,3.62,61.79,30.87L357,246.46l-2.29-16.86c14.22-6.36,26.28-17.78,26.89-18.36a4.48,4.48,0,0,0,.63-.74c4.16-5.91,6-17.22,6.89-26,7.63,11.82,10.55,28.53,11,31.42C398,255.24,367.64,306.2,364.75,311Z" fill="#733217"/>
        <path d="M195,124.31c-30.32-.82-72.3,3.68-74.34,3.9a5,5,0,0,0-1.14.26c-61.24,21.91-79.8,77.27-80.56,79.61a5.32,5.32,0,0,0-.24,1.37,207.91,207.91,0,0,0,7.09,59.81,5.12,5.12,0,0,0,.3.77,171.72,171.72,0,0,0,13.39,23c-12.06-4.9-29.2-14.58-41.23-32.67a182.33,182.33,0,0,1-5.71-25.07c-2.73-17-4.26-40.17,1.34-62.64,4.32-6.15,36.95-51.24,75.33-64.84A200.29,200.29,0,0,0,141.8,87.05c31.3-18,50.06-42.18,54.85-70.38a94.83,94.83,0,0,1,17,32.76,79.9,79.9,0,0,1,2.15,10C215.85,63.14,216,105,195,124.31Z" fill="#ffec51"/>
        <path d="M348.67,123.57c0,5.68-1.1,56.22-32,80.8-22.82-12.12-35.66-13.23-36.39-13.29h-.48a198,198,0,0,0-35.33,4.2l-.09,0a267.79,267.79,0,0,0-71.83,26.44,4.07,4.07,0,0,0-.55.37l-.08.06a4.38,4.38,0,0,0-.55.51c-22.46,24.14-32,55.81-36,74.7-15.84,14.34-29,22.2-34.24,25.09-6.36-4.65-24.7-19.44-39.86-45.17l0,0c-2.08-3.53-4.1-7.27-6-11.21A199,199,0,0,1,50,238.18a186.45,186.45,0,0,1-1.33-27.62c2.17-6,20.91-53.32,73.64-72.47,3-.32,17-1.74,33.71-2.77,17.19-1.06,37.18-1.71,50.8-.28l27.55,7.36-8-17.19c12.41-9,28.23-25.49,36.16-53.79a4.9,4.9,0,0,0,0-2.55c-.17-.69-2.35-9.43-6.55-21.18a218.75,218.75,0,0,0-12.88-29.42A157.64,157.64,0,0,1,304.93,38l1.53.89c2.61,3,16.17,19,28.23,45h0A217.53,217.53,0,0,1,348.67,123.57Z" fill="#ffec51"/>
        <path d="M400.09,215.88C398,255.24,367.64,306.2,364.75,311c-26.43,29.45-67.33,32.8-70.09,33C238.3,343,204,326,189.13,316.54l18.19-9L177.11,309h-33.6a186.35,186.35,0,0,1,8.86-34.59h0c5.31-14.61,13.43-30.84,25.76-44.31,6-3.27,52-27.67,101.57-29,2.3.28,24.54,3.62,61.79,30.87L357,246.46l-2.29-16.86c11.11-5,20.9-13,24.94-16.59,1.13-1,1.81-1.64,1.95-1.77a4.48,4.48,0,0,0,.63-.74c4.16-5.91,6-17.22,6.89-26,5.59,8.66,8.65,19.95,10.06,26.51C399.67,213.35,400,215.11,400.09,215.88Z" fill="#ffec51"/>
        <path d="M379.62,213c-2.05,18.46-14.84,43.06-14.84,43.06L357,246.46l-2.29-16.86C365.79,224.63,375.58,216.57,379.62,213Z" fill="#ffc00e"/>
        <path d="M348.67,123.57c0,5.68-1.1,56.22-32,80.8-22.82-12.12-35.66-13.23-36.39-13.29h-.48a198,198,0,0,0-35.33,4.2c4-1.14,66-19.13,75.67-42.31,12.65-30.4,14.66-55.64,14.59-69.11A217.53,217.53,0,0,1,348.67,123.57Z" fill="#ffc00e"/>
        <path d="M254.78,148.63l-20.44-6.23-8-17.19c12.41-9,28.23-25.49,36.16-53.79a4.9,4.9,0,0,0,0-2.55c8.08,25.33-4.74,48.76-12,57.76S254.78,148.63,254.78,148.63Z" fill="#ffc00e"/>
        <path d="M171.89,222.16a4.38,4.38,0,0,0-.55.51c-22.46,24.14-32,55.81-36,74.7-15.84,14.34-29,22.2-34.24,25.09-6.36-4.65-24.7-19.44-39.86-45.17.79.72,26.18,23.75,38.32,29C99.61,306.29,116.76,259.15,171.89,222.16Z" fill="#ffc00e"/>
        <path d="M156,135.32C75.44,154.4,54.84,215.94,50,238.18a186.45,186.45,0,0,1-1.33-27.62c2.17-6,20.91-53.32,73.64-72.47C125.28,137.77,139.31,136.35,156,135.32Z" fill="#fff" opacity="0.7"/>
        <path d="M304.93,38a87.78,87.78,0,0,0-45.71-7.69c-.16,4-2.14,12.74-3.25,17.4a218.75,218.75,0,0,0-12.88-29.42A157.64,157.64,0,0,1,304.93,38Z" fill="#fff" opacity="0.7"/>
        <path d="M213.64,49.43a143.51,143.51,0,0,0-15-16.14C176.87,104.17,124.76,94.41,46.87,159c2.54-.32,4.75.18,6.22,1.66,3.71,3.71,1.37,12.07-5.23,18.67s-15,8.94-18.67,5.23A6.86,6.86,0,0,1,27.46,179C15.67,197.15,12.86,220,12.51,235.26c-2.73-17-4.26-40.17,1.34-62.64,4.32-6.15,36.95-51.24,75.33-64.84A200.29,200.29,0,0,0,141.8,87.05c31.3-18,50.06-42.18,54.85-70.38A94.83,94.83,0,0,1,213.64,49.43Z" fill="#fff" opacity="0.7"/>
        <path d="M399.15,211c-7.28,43.36-50.48,82-50.48,82a39.93,39.93,0,0,1-8.57,5.73c3.54-3.88,5.12-8.17,3.9-12-2.43-7.57-15.13-10.26-28.36-6s-22,13.83-19.56,21.4c1.46,4.56,6.65,7.34,13.44,7.91-5.94,1.69-10.07,2.66-10.07,2.66-26.67,4.44-65.34-3.11-65.34-3.11,7.56-3.34,16.41-13.78,16.41-13.78-20.93,8-93.91,4.78-93.91,4.78-2.2-8-3.6-19.83-4.24-26.26A186.35,186.35,0,0,0,143.51,309h33.6l30.21-1.42-18.19,9C204,326,238.3,343,294.66,344c2.76-.19,43.66-3.54,70.09-33,2.89-4.77,33.28-55.73,35.34-95.09C400,215.11,399.67,213.35,399.15,211Z" fill="#ffc00e"/>
        <path d="M334.65,344c-17.1,26.89-59.87,33.62-59.87,33.62-64.67,0-106.38-47.17-106.38-47.17l-33.79-1.33c-20.83,7-33.83,4.16-33.83,4.16a5,5,0,0,0,2.13-.47c.61-.29,12.87-6.14,30-20.12,0,.42-.07.71-.08.83a5,5,0,0,0,5,5.43h37.44c7.89,6.5,45.39,33.79,119.44,35H295A126.58,126.58,0,0,0,334.65,344Z" opacity="0.1"/>
      </g>
    </g>
  </g>
</svg>