<svg xmlns="http://www.w3.org/2000/svg" viewBox="0 0 170 60">
  <g id="Layer_2" data-name="Layer 2">
    <g id="Layer_1-2" data-name="Layer 1">
      <g id="Mouth_001">
        <rect id="mouth_guide_center" data-name="mouth guide center" width="170" height="60" fill="#f7931e" opacity="0"/>
        <g id="Mouth_001-2" data-name="Mouth_001">
          <path d="M40.72,40.35S51.78,52.54,69,52.54s79.48-6.13,88.68-15.76S59.1,26.72,59.1,26.72Z" opacity="0.1"/>
          <path id="Mouth_001-color-base" d="M156.62,29.73c0,5.47-3.85,6-5.26,6-.31,0-.51,0-.51,0A167,167,0,0,1,127,33.93c-19.37-2.75-34.41-7.81-53-7.81-18.29,0-25.4,4.88-37.56,7.66a78.17,78.17,0,0,1-18,1.89,7.05,7.05,0,0,1-1.54.17c-1.45,0-3.42-.47-3.42-2.92,0-3.41,3.57-3.62,4.46-3.62h.21C46.67,29.31,49.58,13,70.44,13c5.64,0,12.58,1.19,21.69,4.22C135,31.42,156.62,23.06,156.62,29.73Z" fill="#ffa12a"/>
          <path id="Mouth_001-shadow-custom" d="M150.68,38.47A182.49,182.49,0,0,1,116.27,35c-3.19-.6-6.31-1.21-9.4-1.84-11-2.2-21.31-4.27-32.95-4.27-12.11,0-19,2.21-26.22,4.55-1.62.52-3.26,1.06-5,1.56a79.64,79.64,0,0,1-24,3.44l-.36.05v.42a99.85,99.85,0,0,1,25.82,3.19,100,100,0,0,0,25.37,3.21c11.79,0,27.81-1.71,43.3-3.36,14.64-1.56,28.48-3,38-3v-.46Z" fill="#ff730d"/>
          <ellipse id="Mouth_001-highlight" cx="61.15" cy="20.53" rx="6.6" ry="4.79" transform="translate(-2.02 33.57) rotate(-30.22)" fill="#fff" opacity="0.7"/>
          <path id="Mouth_001-mouth-outline" d="M155.06,22.8A55.45,55.45,0,0,0,145.7,22h-.34A171,171,0,0,1,94,13c-9.15-3.05-16.87-4.53-23.6-4.53-11.24,0-18.37,4.24-24.7,8-6.8,4.08-13.84,8.28-27.48,8.32H17.9c-4.83,0-9.73,2.79-9.73,8.14,0,4.37,3.57,7.43,8.69,7.43a16.06,16.06,0,0,0,1.87-.13l.22,0a82.06,82.06,0,0,0,24.44-3.53c1.55-.46,3-.93,4.51-1.41l.5-.17c7.07-2.28,13.75-4.44,25.52-4.44,11.4,0,21.63,2.05,32.49,4.23,3.58.72,6.58,1.31,9.44,1.84a183.45,183.45,0,0,0,34.71,3.48h.16c.19,0,.41,0,.64,0,5.24,0,10.53-3.24,10.53-10.48C161.89,28.11,161.22,24.16,155.06,22.8Zm-3.7,12.89c-.31,0-.51,0-.51,0A167,167,0,0,1,127,33.93c-19.37-2.75-34.41-7.81-53-7.81-18.29,0-25.4,4.88-37.56,7.66a78.17,78.17,0,0,1-18,1.89,7.05,7.05,0,0,1-1.54.17c-1.45,0-3.42-.47-3.42-2.92,0-3.41,3.57-3.62,4.46-3.62h.21C46.67,29.31,49.58,13,70.44,13c5.64,0,12.58,1.19,21.69,4.22,42.84,14.23,64.49,5.87,64.49,12.54C156.62,35.2,152.77,35.69,151.36,35.69Z" fill="#881f2b"/>
        </g>
      </g>
    </g>
  </g>
</svg>
