<svg xmlns="http://www.w3.org/2000/svg" viewBox="0 0 340 500">
  <g id="Layer_2" data-name="Layer 2">
    <g id="Layer_1-2" data-name="Layer 1">
      <g id="Wing_001">
        <rect id="wing_guide_center_left" data-name="wing guide center left" width="340" height="500" fill="#ed1c24" opacity="0"/>
        <g id="Wing_001-2" data-name="Wing_001">
          <path id="Wing_001-color-base" d="M197.71,316.78c.18,5.89-3.86,14.19-13.29,19.43-.61.34-1.29.69-2.06,1-.45.21-.94.43-1.45.64s-1.06.41-1.63.62l-.58.2-1.21.39c-.63.19-1.29.37-2,.54a52.17,52.17,0,0,1-13.94,1.44l-.72,0c-1,0-2-.09-3-.17a2.07,2.07,0,0,1-.35,0l-1.21-.11-.36,0q-1.87-.19-3.87-.51c-1.33-.21-2.7-.46-4.11-.76q-1.89-.39-3.87-.9l-1.33-.35c-2.24-.6-4.57-1.31-7-2.15l-1.45-.5h0l-1.49-.54-.61-.23-2.16-.84-.27-.11c-1-.41-2-.83-3.06-1.27l-.06,0-1.6-.7c-4.49-2-9.25-4.38-14.28-7.21l-1.12-.63c-.59-.33-1.19-.68-1.78-1q-5.54-3.22-11.49-7.18a3,3,0,0,0-3.33,5A215.48,215.48,0,0,0,115.7,334l1.32.67.16.08c.9.44,1.78.86,2.66,1.27s1.8.85,2.69,1.24c.45.21.89.4,1.33.59q1.32.58,2.61,1.11c.38.17.76.33,1.14.47l.23.1L129,340c.84.34,1.68.66,2.5,1,.44.17.87.32,1.3.47.79.29,1.58.56,2.35.81s1.59.53,2.37.76c.61.2,1.22.39,1.82.55s1.2.36,1.8.51,1.18.33,1.76.47q1.74.45,3.42.81c.84.18,1.67.35,2.49.5l.95.17c2.1.38,4.13.66,6.07.85l8.2,3.4c-.23.37-.48.75-.76,1.13l-.43.58c-.14.19-.29.38-.46.57-.32.39-.67.77-1,1.16-.19.21-.4.41-.61.6s-.38.36-.58.54-.43.38-.66.56-.46.38-.7.56c-8.39,6.35-22.46,7.89-40.7,4.44l-1.15-.24c-.63-.13-1.26-.29-1.89-.46-1.17-.32-2.35-.7-3.55-1.12l-1.12-.41-1.12-.44c-.64-.25-1.27-.52-1.91-.8l-1.06-.47-1.14-.53-1.11-.54-1.1-.55-1.1-.57-1.1-.59c-.54-.29-1.09-.59-1.63-.9l-.22-.13c-.52-.29-1-.6-1.57-.91-1.14-.66-2.27-1.35-3.38-2.06-.56-.35-1.11-.71-1.66-1.07-4.07-2.65-8-5.47-11.46-8.17-.29-.22-.58-.44-.86-.67-8.38-6.52-14.36-12.2-15.08-12.89l-.05-.05,0,0a3,3,0,0,0-4.17,4.31l.07.07.2.18c1.29,1.24,6.49,6.13,13.76,11.9.53.43,1.07.86,1.62,1.28,1.11.87,2.27,1.75,3.46,2.64l.9.67c.59.44,1.2.88,1.81,1.31,1.26.91,2.56,1.82,3.88,2.72.56.38,1.12.76,1.69,1.13,1.72,1.13,3.47,2.24,5.26,3.31.68.42,1.37.82,2.06,1.21s1.38.79,2.08,1.17,1.39.76,2.09,1.11c.35.2.71.38,1.06.54s.86.44,1.29.65h0l.54.25,1.32.62c1.06.49,2.12.95,3.17,1.36l.92.37.14.05,3.79,6.24-.21.16-.45.33a13.69,13.69,0,0,1-1.52.87l-.55.25a19,19,0,0,1-3.51,1.15l-.89.2q-1,.21-2.16.36l-.53.06c-.53.07-1.1.12-1.69.16l-.71.05-.74,0-1.4,0a84.74,84.74,0,0,1-15-1.26A44.93,44.93,0,0,1,77,371.06l-1.29-.39-.17-.06c-.4-.13-.81-.26-1.21-.41-.59-.19-1.18-.41-1.77-.64l-1.26-.5-1.45-.61c-.48-.21-1-.42-1.45-.65s-1-.45-1.46-.69l-1.46-.73L64,365.6c-.49-.25-1-.53-1.47-.81-1-.56-2-1.14-2.95-1.75l-1.46-.91c-.52-.33-1-.68-1.56-1s-1-.7-1.55-1.06-1-.73-1.55-1.11L52.15,358l-.4-.3-1.36-1.05-.06-.05q-.75-.58-1.5-1.2l-1.52-1.25-1.51-1.3c-1.66-1.45-3.3-3-4.9-4.54-.33-.31-.66-.64-1-1s-.8-.8-1.18-1.2l-1.41-1.47c-1-1.09-2-2.21-3-3.34-16.21-18.67-24.83-39.77-24.27-59.39a3,3,0,0,0-2.91-3.09,2.54,2.54,0,0,0-.48,0,62.64,62.64,0,0,1,7.65-25.6c7.93-14.5,27.14-23,41.19-25.92,10.6-2.19,19.92-1.74,25.76,1.12a3,3,0,0,0,.16,4.13l.62.59.56.53c.58.54,1.35,1.26,2.33,2.14l.7.64,1.58,1.42,1.23,1.1c2.38,2.1,5.33,4.66,8.81,7.57.87.73,1.77,1.48,2.71,2.25l0,0c.88.73,1.8,1.48,2.74,2.24a496.44,496.44,0,0,0,50.63,36.08l2.5,1.54c9.22,5.64,19.08,11.23,29.46,16.48l3.52,1.76.54.27c1.26.62,2.53,1.24,3.81,1.85C197,310.87,197.64,314.67,197.71,316.78Z" fill="#ffec51"/>
          <path id="Wing_001-shadow-custom" d="M114.47,365.75a7.2,7.2,0,0,1-2,3.58l-.22.21c-2.74,2.5-10.18,5.95-29.76,2.78-7.16-1.17-15-4.42-22.9-9.28a81.64,81.64,0,0,0,42.33-2h0c2,1,4,1.84,5.95,2.6A57.66,57.66,0,0,0,114.47,365.75Z" fill="#ffc00e"/>
          <path id="Wing_001-shadow-custom-2" data-name="Wing_001-shadow-custom" d="M165.62,347.17a20.61,20.61,0,0,1-6.81,8.8c-8.39,6.35-22.46,7.89-40.7,4.44-5.53-1-11.49-3.53-17.35-6.72,7.58.07,25.54-.89,36.78-10.68a85.25,85.25,0,0,0,25.35,4.22C163.83,347.23,164.73,347.2,165.62,347.17Z" fill="#ffc00e"/>
          <path id="Wing_001-shadow-custom-3" data-name="Wing_001-shadow-custom" d="M197.71,316.78c.18,5.89-3.86,14.19-13.29,19.43-5.52,3.07-17.27,7.25-36.44,3.23,8.24-2.61,30.9-11.71,37.35-34.25q3.88,2,7.87,3.88C197,310.87,197.64,314.67,197.71,316.78Z" fill="#ffc00e"/>
          <path id="Wing_001-wing-outline" d="M203.7,316.59c.29,9.42-6.13,19.18-16.37,24.86a45.93,45.93,0,0,1-15.21,5.08,26.23,26.23,0,0,1-9.69,14.22c-6.58,5-15.53,7.49-26.72,7.49a95.77,95.77,0,0,1-15.36-1.35,13.16,13.16,0,0,1-3.54,6.55c-4,4.1-10.83,6.16-20.28,6.16a95.67,95.67,0,0,1-15-1.36C46.3,372.53,2.78,326,4.05,281.74a3,3,0,0,1,2.61-2.89,2.54,2.54,0,0,1,.48,0,3,3,0,0,1,2.91,3.09c-.56,19.62,8.06,40.72,24.27,59.39,1,1.13,2,2.25,3,3.34q.69.74,1.41,1.47c.38.4.78.8,1.18,1.2s.65.66,1,1c1.6,1.58,3.24,3.09,4.9,4.54l1.51,1.3,1.52,1.25q.75.62,1.5,1.2l.06.05,1.36,1.05.4.3,1.29.95c.51.38,1,.75,1.55,1.11s1,.71,1.55,1.06,1,.7,1.56,1l1.46.91c1,.62,2,1.2,2.95,1.75.49.28,1,.56,1.47.81s1,.53,1.47.78,1,.5,1.46.73,1,.48,1.46.69,1,.45,1.45.65,1,.42,1.45.61.84.35,1.26.5c.59.23,1.18.45,1.77.64.41.15.81.29,1.21.41l.17.06,1.29.39a44.93,44.93,0,0,0,5.49,1.26,84.74,84.74,0,0,0,15,1.26l1.4,0,.74,0,.71-.05c.59,0,1.16-.09,1.69-.16l.53-.06q1.16-.15,2.16-.36l.89-.2a19,19,0,0,0,3.51-1.15l.55-.25a13.69,13.69,0,0,0,1.52-.87l.45-.33.21-.16L108,363.67h0l-1-.41c-1.06-.43-2.11-.88-3.17-1.36l-1.32-.62c-.61-.29-1.23-.59-1.84-.9l-1.06-.54c-.7-.36-1.39-.73-2.09-1.11s-1.39-.77-2.08-1.17-1.38-.8-2.06-1.21c-1.79-1.07-3.54-2.18-5.26-3.31l-1.69-1.13c-1.32-.9-2.62-1.81-3.88-2.72l-1.81-1.31-.9-.67c-1.19-.89-2.35-1.77-3.46-2.64-.55-.43-1.09-.85-1.62-1.28-7.27-5.77-12.47-10.66-13.76-11.9l-.2-.18-.07-.07a3,3,0,0,1,4.17-4.31l0,0,.05.05c.72.69,6.7,6.37,15.08,12.89.28.23.57.45.86.67,3.5,2.7,7.39,5.52,11.46,8.17.55.37,1.11.72,1.66,1.07,1.11.71,2.24,1.4,3.38,2.06.52.32,1,.62,1.57.91l.22.13c.54.31,1.09.61,1.63.9l1.1.59,1.1.57c.37.19.73.38,1.1.55l1.11.54,1.14.53,1.06.47c.64.28,1.27.55,1.91.8l1.12.44,1.12.41c1.2.42,2.38.8,3.55,1.12.64.17,1.27.33,1.89.46l1.15.24c18.24,3.45,32.31,1.91,40.7-4.44.24-.18.47-.37.7-.56s.45-.36.66-.56.39-.35.58-.54.42-.39.61-.6a13.77,13.77,0,0,0,1-1.16c.17-.19.32-.38.46-.57s.3-.39.43-.58c.28-.38.53-.76.76-1.13l-8.2-3.4c-1.94-.19-4-.47-6.07-.85l-.95-.17c-.82-.15-1.65-.32-2.49-.5q-1.68-.37-3.42-.81l-1.76-.47-1.8-.51c-.6-.17-1.21-.36-1.82-.55-.78-.23-1.57-.49-2.37-.76s-1.56-.52-2.35-.81c-.43-.15-.86-.3-1.3-.47-.82-.29-1.66-.61-2.5-1l-1.18-.46-.23-.1-1.14-.47-2.61-1.11-1.33-.59c-.89-.39-1.78-.81-2.69-1.24s-1.77-.83-2.66-1.27l-.16-.08L115.7,334a215.48,215.48,0,0,1-22.62-13.28,3,3,0,0,1,3.33-5q6,4,11.49,7.18c.6.35,1.19.7,1.78,1l1.12.63c5,2.83,9.79,5.22,14.28,7.21.54.24,1.07.48,1.6.7l.06,0c1,.44,2,.87,3.06,1.27l.27.11,2.16.84.61.23,1.49.54h0l1.45.5c2.42.84,4.75,1.55,7,2.15.45.13.89.24,1.33.35q2,.51,3.87.9c1.41.3,2.78.55,4.11.76s2.62.38,3.87.51l.36,0c.41.05.81.08,1.21.11a2.07,2.07,0,0,0,.35,0c1,.08,2,.14,3,.17l.72,0a52.17,52.17,0,0,0,13.94-1.44c.68-.17,1.34-.35,2-.54.41-.13.82-.25,1.21-.39l.58-.2c.57-.21,1.11-.41,1.63-.62s1-.43,1.45-.64c.77-.35,1.45-.7,2.06-1,9.43-5.24,13.47-13.54,13.29-19.43-.07-2.11-.74-5.91-4.51-7.71-1.28-.61-2.55-1.23-3.81-1.85l-.54-.27-3.52-1.76c-10.38-5.25-20.24-10.84-29.46-16.48-.84-.51-1.68-1-2.5-1.54a496.44,496.44,0,0,1-50.63-36.08L100,248.85l0,0c-.94-.77-1.84-1.52-2.71-2.25-3.48-2.91-6.43-5.47-8.81-7.57l-1.23-1.1-1.58-1.42-.7-.64c-1-.88-1.75-1.6-2.33-2.14l-.56-.53-.62-.59a3,3,0,0,1-.16-4.13l.1-.12a3,3,0,0,1,4.24-.06c.46.45,46.67,45,110.18,75.39C200.64,306,203.52,310.69,203.7,316.59Z" fill="#733217"/>
        </g>
      </g>
    </g>
  </g>
</svg>
