<svg xmlns="http://www.w3.org/2000/svg" viewBox="0 0 340 500">
  <g id="Layer_2" data-name="Layer 2">
    <g id="Layer_1-2" data-name="Layer 1">
      <g id="Wing_010">
        <rect id="wing_guide_center_left" data-name="wing guide center left" width="340" height="500" fill="#ed1c24" opacity="0"/>
        <g id="Wing_010-2" data-name="Wing_010">
          <path d="M10.81,297.56s26.27,36,77.26,54a25.8,25.8,0,0,0,17.69-.24c15.57-5.85,48.48-20.17,73.21-44.34C179,307,93.67,273.4,10.81,297.56Z" fill="#dbdbdb"/>
          <path id="Wing_010-color-base" d="M247.75,264.34c-6.82,6.3-15.76,12.49-25.94,18.43-1.14.67-2.29,1.34-3.46,2-19.32,10.91-42.45,20.92-63.55,29.1h0c-30.46,11.81-56.66,19.77-60.91,21a139.31,139.31,0,0,1-57.73-21.15h0C24.32,306,15.26,297.23,10.06,289,4.6,280.27,6,265.77,13.48,253.73a49.87,49.87,0,0,1,31.71-22.27,63.64,63.64,0,0,1,20.36-1c48.15,4.89,63.16,31.15,63.3,31.42a3,3,0,0,0,2.58,1.54,2.87,2.87,0,0,0,1.49-.35,3,3,0,0,0,1.2-4.06c-.39-.72-6.26-11.19-22.14-20.55a126.28,126.28,0,0,1,5.51-19.4,128.49,128.49,0,0,1,6.59-14.75c.65-1.24,1.3-2.44,2-3.58A111.63,111.63,0,0,1,141.78,179c9.2,2.35,25.08,9.79,32.12,13.2-5.73,6.68-11.73,15.67-16.36,23.08q-1.11,1.78-2.1,3.42c-3.42,5.63-5.73,9.76-6,10.19a3,3,0,0,0,5,3.32,66.07,66.07,0,0,1,8.61-8.8c1.06-.92,2.13-1.8,3.23-2.66a152.74,152.74,0,0,1,25.83-16.12,94.19,94.19,0,0,1,22.08,18.87c-5.5,4-15.28,12-22.47,18-1.08.92-2.12,1.78-3.07,2.58-3.25,2.73-5.52,4.66-5.83,4.93a3,3,0,0,0,3.24,5l8.31-4,3.76-1.8,27.08-13A97.85,97.85,0,0,1,247.75,264.34Z" fill="#ffec51"/>
          <g id="Wing_010-shadow-custom">
            <path d="M134.12,259a3,3,0,0,1-1.2,4.06,2.87,2.87,0,0,1-1.49.35l2.75,3.8s8.21-10.84-5.27-29.18c-6.73-9.16-9.91-15.22-11.42-19a126.28,126.28,0,0,0-5.51,19.4C127.86,247.8,133.73,258.27,134.12,259Z" fill="#ffc00e"/>
            <path d="M36.14,313.75A139.31,139.31,0,0,0,93.87,334.9c4.25-1.26,30.45-9.22,60.91-21C96.53,327,37.06,313.94,36.14,313.75Z" fill="#ffc00e"/>
          </g>
          <ellipse id="Wing_010-highlight" cx="67.84" cy="272.6" rx="15.62" ry="26.98" transform="translate(-203.85 201.22) rotate(-61.3)" fill="#fff" opacity="0.7"/>
          <g id="Wing_010-color-mono">
            <path d="M173.9,192.19a173,173,0,0,0-12.14,16.5,171.24,171.24,0,0,0-32.19-13.87A106.62,106.62,0,0,1,141.78,179C151,181.34,166.86,188.78,173.9,192.19Z" fill="#ff730d"/>
            <path d="M214.2,223.49c-3.9,2.82-9.94,7.66-15.68,12.39a179.38,179.38,0,0,0-25.3-20.23,161.37,161.37,0,0,1,18.9-11A94.19,94.19,0,0,1,214.2,223.49Z" fill="#ff730d"/>
            <path d="M247.75,264.34A130.18,130.18,0,0,1,231,277.1a196.65,196.65,0,0,0-24.4-33l18.61-8.91A97.85,97.85,0,0,1,247.75,264.34Z" fill="#ff730d"/>
            <path d="M157.54,215.27q-1.11,1.78-2.1,3.42c-.15-.1-.31-.19-.47-.28a177.76,177.76,0,0,0-30.89-14.12c.65-1.24,1.3-2.44,2-3.58a181.08,181.08,0,0,1,30.82,14.16Z" fill="#ff730d"/>
            <path d="M191.73,241.48c-1.08.92-2.12,1.78-3.07,2.58a165.69,165.69,0,0,0-25.6-20.66c1.06-.92,2.13-1.8,3.23-2.66A168.41,168.41,0,0,1,191.73,241.48Z" fill="#ff730d"/>
            <path d="M221.81,282.77c-1.14.67-2.29,1.34-3.46,2a155.33,155.33,0,0,0-24-34.77l3.76-1.8A158.38,158.38,0,0,1,221.81,282.77Z" fill="#ff730d"/>
          </g>
          <path id="Wing_010-wing-outline" d="M254.15,264c-.29-.73-7.26-18-26.48-34.55a3,3,0,0,0-3.26-.43l-19.22,9.2c6.48-5.28,12.53-10,14.9-11.42a3,3,0,0,0,.92-4.34,95.37,95.37,0,0,0-27.21-23.78,3,3,0,0,0-2.77-.14,158.2,158.2,0,0,0-25.25,15c4.69-7.23,10.22-15,15.18-20.22a3,3,0,0,0-.82-4.75c-1.08-.55-26.52-13.31-38.7-15.82a3,3,0,0,0-2.65.74c-1,.94-23.94,22.7-32.32,62-10-5-23.17-9.24-40.31-11a3,3,0,0,0-.61,6c48.15,4.89,63.16,31.15,63.3,31.41a3,3,0,0,0,.89,1h0l4.44,4.34,2-4.67-2.1-3.64c-.52-.93-3.92-6.68-11.84-13.27l-8.43-14.91c7.73-29.07,23.66-47.21,28-51.72,9.2,2.35,25.08,9.79,32.12,13.2-11.4,13.3-23.86,35.67-24.42,36.69l-2.89,5.46,1.12,4.39,6.38-6.15h0a2.53,2.53,0,0,0,.36-.37c11.09-13.93,32.07-24.83,37.68-27.58a94.09,94.09,0,0,1,22.07,18.87c-9.21,6.66-30.37,24.64-31.37,25.5a2.6,2.6,0,0,0-.5.55l-5.05,5.68.91,4.06,7.88-5.3,39.15-18.74a97.85,97.85,0,0,1,22.53,29.1C209.3,299.83,102.83,332.22,93.87,334.9c-39.22-5-71.81-26.85-83.82-45.95A3,3,0,0,0,5,292.15c12.82,20.4,47.44,43.7,88.79,48.78a2.92,2.92,0,0,0,1-.05l.19-.05c4.83-1.41,118.92-35.16,158.48-73.63A3,3,0,0,0,254.15,264Z" fill="#881f2b"/>
        </g>
      </g>
    </g>
  </g>
</svg>
