<svg xmlns="http://www.w3.org/2000/svg" viewBox="0 0 423.74 522.04">
  <g id="Layer_2" data-name="Layer 2">
    <g id="Buttom_Chick" data-name="Buttom Chick">
      <g id="Buttom_Chick-2" data-name="Buttom Chick">
        <path d="M169.69,5C77.3,5,5,55.11,5,187.09S57.79,517,269,517c171.58,0,171.58-145.18,118.79-198s-79.19-79.19-79.19-184.77S222.48,5,169.69,5Z" fill="#fff"/>
        <path d="M418.6,404.91C416.41,460.33,376.2,517,269,517,158.32,517,91.16,462.7,52.29,392c46.55,51.6,113.74,86.51,208.85,86.51C347.89,478.49,396.51,446.23,418.6,404.91Z" opacity="0.1"/>
        <path d="M269,522c-50.61,0-95.32-11.34-132.89-33.7-33.07-19.68-60.85-48-82.57-84.21C7,326.54,0,234.84,0,187.09,0,123.45,16.55,75,49.2,43,78.31,14.46,118.84,0,169.69,0c20.14,0,58.89,3.37,92,25.92,34.39,23.39,51.83,59.85,51.83,108.38,0,86.85,17.11,118.69,58.05,161.32a5,5,0,1,1-7.21,6.92c-20-20.85-35.45-39.91-45.62-65.15-10.53-26.15-15.22-57.94-15.22-103.09C303.56,16,192,10,169.69,10,66.71,10,10,72.89,10,187.09,10,241.35,22.48,512,269,512c83.8,0,118.83-34.37,133.46-63.21,21.2-41.78,9.75-89.65-9.86-116.44a5,5,0,1,1,8.07-5.91c21.35,29.18,33.82,81.33,10.71,126.88-10.56,20.81-27.15,37.28-49.3,49C337.2,515.41,305.88,522,269,522Z" fill="#733217"/>
      </g>
    </g>
  </g>
</svg>
