<svg xmlns="http://www.w3.org/2000/svg" xmlns:xlink="http://www.w3.org/1999/xlink" viewBox="0 0 191.19 86.64">
  <defs>
    <clipPath id="clip-path">
      <circle cx="147" cy="40" r="40" fill="none"/>
    </clipPath>
    <clipPath id="clip-path-2">
      <circle cx="40" cy="40" r="40" fill="none"/>
    </clipPath>
  </defs>
  <g id="Layer_2" data-name="Layer 2">
    <g id="Eyes">
      <g>
        <g>
          <path d="M188.91,48a38.66,38.66,0,0,1-73.76,16.21A40,40,0,0,0,186.7,35.07,38.55,38.55,0,0,1,188.91,48Z" opacity="0.1"/>
          <circle cx="147" cy="40" r="40" fill="#fff"/>
          <g clip-path="url(#clip-path)">
            <g>
              <g>
                <circle cx="161.19" cy="40" r="30" fill="#282828"/>
                <path d="M161.19,15a25,25,0,1,1-25,25,25,25,0,0,1,25-25m0-5a30,30,0,1,0,30,30,30,30,0,0,0-30-30Z" fill="#1c1c1c"/>
              </g>
              <circle cx="161.19" cy="40" r="12.36" fill="#1c1c1c"/>
            </g>
          </g>
          <path d="M182.19,21A61.84,61.84,0,0,0,107,38.68,40,40,0,0,1,182.19,21Z" opacity="0.1"/>
          <g>
            <path d="M184.17,61.05A1.09,1.09,0,0,0,183,62s-.41,2.72-3.31,6.43a1.1,1.1,0,0,0-.34-1.17,1,1,0,0,0-.39-.2,18.91,18.91,0,0,0,2.82-4.91,1.09,1.09,0,0,0-.55-1.36,40,40,0,1,0-22.4,17.45,1.05,1.05,0,0,0,.52.25,1.09,1.09,0,0,0,.44,0c.11,0,.6-.15,1.35-.38a1.1,1.1,0,0,0,.88,1.32,1.19,1.19,0,0,0,.42,0,34.26,34.26,0,0,0,12.83-6.47c-.24.21-.47.41-.73.62a1.08,1.08,0,0,0-.17,1.53,1.15,1.15,0,0,0,.67.4,1.12,1.12,0,0,0,.87-.23c8.43-6.74,9.23-12.74,9.26-13A1.09,1.09,0,0,0,184.17,61.05ZM113,40a34,34,0,1,1,34,34A34,34,0,0,1,113,40Z" fill="#733217"/>
            <path d="M173.68,75.86a1.09,1.09,0,0,0-1.53-.16c-5.59,4.49-13.27,4-13.34,4a1.09,1.09,0,0,0-.27,2.17h.1c.35,0,8.61.59,14.88-4.46A1.1,1.1,0,0,0,173.68,75.86Z" fill="#733217"/>
            <path d="M178.51,73.55c-4.24,5-10.91,7.73-11,7.76a1.09,1.09,0,0,0-.6,1.42,1.07,1.07,0,0,0,.83.67,1.1,1.1,0,0,0,.59-.06c.29-.12,7.23-2.94,11.83-8.38a1.09,1.09,0,0,0-1.67-1.41Z" fill="#733217"/>
          </g>
        </g>
        <g>
          <path d="M81.91,48A38.66,38.66,0,0,1,44.43,86.62l-.21-6.84A40,40,0,0,0,79.7,35.07,38.55,38.55,0,0,1,81.91,48Z" opacity="0.1"/>
          <circle cx="40" cy="40" r="40" fill="#fff"/>
          <g clip-path="url(#clip-path-2)">
            <g>
              <g>
                <circle cx="54.19" cy="40" r="30" fill="#282828"/>
                <path d="M54.19,15a25,25,0,1,1-25,25,25,25,0,0,1,25-25m0-5a30,30,0,1,0,30,30,30,30,0,0,0-30-30Z" fill="#1c1c1c"/>
              </g>
              <circle cx="54.19" cy="40" r="12.36" fill="#1c1c1c"/>
            </g>
          </g>
          <path d="M75.19,21A61.84,61.84,0,0,0,0,38.68,40,40,0,0,1,75.19,21Z" opacity="0.1"/>
          <g>
            <path d="M77.18,61.05A1.08,1.08,0,0,0,76,62s-.42,2.72-3.32,6.43a1.1,1.1,0,0,0-.34-1.17,1,1,0,0,0-.39-.2,18.91,18.91,0,0,0,2.82-4.91,1.09,1.09,0,0,0-.55-1.36,40,40,0,1,0-22.4,17.45,1.05,1.05,0,0,0,.52.25,1.14,1.14,0,0,0,.45,0c.1,0,.59-.15,1.35-.38A1.07,1.07,0,0,0,55,79.41a1.14,1.14,0,0,0,.41,0,34.26,34.26,0,0,0,12.83-6.47c-.24.21-.47.41-.73.62a1.09,1.09,0,0,0-.17,1.53,1.15,1.15,0,0,0,.67.4,1.11,1.11,0,0,0,.87-.23c8.43-6.74,9.23-12.74,9.26-13A1.08,1.08,0,0,0,77.18,61.05ZM6,40A34,34,0,1,1,40,74,34,34,0,0,1,6,40Z" fill="#733217"/>
            <path d="M66.68,75.86a1.09,1.09,0,0,0-1.53-.16c-5.58,4.49-13.26,4-13.34,4a1.09,1.09,0,0,0-1.17,1,1.1,1.1,0,0,0,.9,1.16h.11c.34,0,8.6.59,14.87-4.46A1.1,1.1,0,0,0,66.68,75.86Z" fill="#733217"/>
            <path d="M71.52,73.55c-4.25,5-10.92,7.73-11,7.76a1.09,1.09,0,0,0,.81,2c.29-.12,7.23-2.94,11.83-8.38a1.09,1.09,0,1,0-1.66-1.41Z" fill="#733217"/>
          </g>
        </g>
      </g>
    </g>
  </g>
</svg>
