<svg xmlns="http://www.w3.org/2000/svg" viewBox="0 0 159.89 73.38">
  <g id="Layer_2" data-name="Layer 2">
    <g id="Leg">
      <g>
        <g>
          <path d="M96.76,1.43A2.67,2.67,0,0,0,94.16,0L67,2.4a2.66,2.66,0,0,0-2.15,1.47c-.43.85-9.07,18.23-11.76,32.56C20.7,38.71,6.69,53.32,1.18,62a8,8,0,0,0,0,8.32A6.15,6.15,0,0,0,7,73.36c17.78-1.53,38.6-1.24,55.32-1,14.42.2,25.81.37,30.91-.66a6.87,6.87,0,0,0,1.4-.43,7.4,7.4,0,0,0,4.58-6.66c.24-14.72-15.69-22.71-22-25.29C83.5,20,96.31,4.56,96.44,4.39A2.67,2.67,0,0,0,96.76,1.43ZM71.34,40.1h0q-.4,1.38-.78,2.79a2.7,2.7,0,0,0,3.63,3.15,2.72,2.72,0,0,0,1.47-1.56c5.6,2.4,18.35,9.07,18.17,20a2,2,0,0,1-1.68,1.92c-4.54.92-16.24.75-29.78.56-16.84-.24-37.81-.53-55.86,1-.13,0-.45,0-.78-.52a2.71,2.71,0,0,1,0-2.66c4.9-7.69,17.4-20.64,46.68-23,0,.44-.05.87-.06,1.3a2.68,2.68,0,0,0,5.35.14C58,31.5,66.56,12.74,69,7.6L88.59,5.87C83.82,12.53,75.71,25.25,71.34,40.1Z" fill="#733217"/>
          <path d="M80.47,46.86c6,3.37,13.48,9.25,13.35,17.67a2,2,0,0,1-1.69,1.92c-4.54.91-16.24.74-29.78.55l-2.18,0c-16.45-.23-36.39-.43-53.68,1-.13,0-.44,0-.77-.52a2.72,2.72,0,0,1,0-2.67c4.9-7.68,17.41-20.63,46.69-23,0,.44-.05.88-.06,1.3a2.68,2.68,0,0,0,5.35.15C58,31.49,66.56,12.73,69,7.6L88.59,5.87C83.82,12.53,75.7,25.25,71.33,40.09h0c-.28.93-.54,1.86-.78,2.8a2.68,2.68,0,0,0,1.93,3.26,2.65,2.65,0,0,0,3.16-1.67A48.53,48.53,0,0,1,80.47,46.86Z" fill="#ff730d"/>
          <path d="M93.82,64.53a2,2,0,0,1-1.69,1.92c-4.54.91-16.24.74-29.78.55l-2.18,0c7-1.52,16.16-3.93,20-6.83,4.08-3.08,2.26-9.15.29-13.29C86.49,50.23,94,56.11,93.82,64.53Z" opacity="0.1"/>
          <ellipse cx="22.21" cy="57.9" rx="7.52" ry="4.03" transform="translate(-24.45 17.06) rotate(-27.82)" fill="#fff" opacity="0.7"/>
        </g>
        <g>
          <path d="M157.47,1.43A2.65,2.65,0,0,0,154.87,0L127.74,2.4a2.66,2.66,0,0,0-2.16,1.47c-.43.85-9.07,18.23-11.76,32.56C81.42,38.71,67.4,53.32,61.89,62a8,8,0,0,0,0,8.32,6.17,6.17,0,0,0,5.82,3.08c17.78-1.53,38.6-1.24,55.33-1,14.41.2,25.8.37,30.9-.66a6.87,6.87,0,0,0,1.4-.43,7.38,7.38,0,0,0,4.58-6.66c.24-14.72-15.69-22.71-22-25.29C144.22,20,157,4.56,157.15,4.39A2.67,2.67,0,0,0,157.47,1.43ZM132.05,40.1h0q-.42,1.38-.78,2.79a2.67,2.67,0,0,0,1.93,3.26,2.7,2.7,0,0,0,1.69-.11,2.66,2.66,0,0,0,1.47-1.56c5.61,2.4,18.35,9.07,18.17,20a2,2,0,0,1-1.68,1.92c-4.54.92-16.24.75-29.78.56-16.84-.24-37.8-.53-55.86,1-.13,0-.45,0-.77-.52a2.68,2.68,0,0,1,0-2.66c4.9-7.69,17.4-20.64,46.69-23,0,.44-.06.87-.06,1.3a2.67,2.67,0,0,0,5.34.14c.33-11.79,8.9-30.55,11.34-35.69L149.3,5.87C144.54,12.53,136.42,25.25,132.05,40.1Z" fill="#733217"/>
          <path d="M141.19,46.86c6,3.37,13.48,9.25,13.34,17.67a2,2,0,0,1-1.68,1.92c-4.54.91-16.25.74-29.78.55l-2.19,0c-16.44-.23-36.39-.43-53.67,1-.14,0-.45,0-.78-.52a2.7,2.7,0,0,1,0-2.67c4.9-7.68,17.4-20.63,46.68-23,0,.44,0,.88-.06,1.3a2.68,2.68,0,1,0,5.35.15c.32-11.8,8.89-30.56,11.34-35.69L149.3,5.87c-4.77,6.66-12.88,19.38-17.25,34.22h0c-.27.93-.53,1.86-.78,2.8a2.67,2.67,0,0,0,5.1,1.59A50.77,50.77,0,0,1,141.19,46.86Z" fill="#ffa12a"/>
          <path d="M154.53,64.53a2,2,0,0,1-1.68,1.92c-4.54.91-16.25.74-29.78.55l-2.19,0c7-1.52,16.17-3.93,20-6.83,4.09-3.08,2.26-9.15.3-13.29C147.21,50.23,154.67,56.11,154.53,64.53Z" fill="#ff730d"/>
          <ellipse cx="82.92" cy="57.9" rx="7.52" ry="4.03" transform="translate(-17.44 45.39) rotate(-27.82)" fill="#fff" opacity="0.7"/>
        </g>
      </g>
    </g>
  </g>
</svg>
