<svg xmlns="http://www.w3.org/2000/svg" viewBox="0 0 337.29 354.83">
  <g id="Layer_2" data-name="Layer 2">
    <g id="Top_Chick" data-name="Top Chick">
      <g>
        <path d="M331.89,242.34c-12.68-26.36-18.33-59.68-18.33-108s-17.44-85-51.83-108.37C228.57,3.37,189.83,0,169.68,0,118.84,0,78.3,14.46,49.2,43,16.55,75,0,123.45,0,187.09c0,33.34,3.36,84.34,19.37,138l.34,1.14.82.86C32.37,339.63,45.94,348.66,60.84,354a15.23,15.23,0,0,0,5.07.87,15.42,15.42,0,0,0,7.43-1.91c8.34-4.58,28.76-17.48,38-38.22a5.39,5.39,0,0,1,3.78-3.08,5.53,5.53,0,0,1,4.86,1.2c13.75,11.78,35.16,25.34,59.08,23a15.45,15.45,0,0,0,7.71-3c6.41-4.74,22.14-18.63,29.74-45.13a5.28,5.28,0,0,1,3.49-3.62,5.53,5.53,0,0,1,5.16.87c12,9.14,30.95,19.62,53.72,17.64a15.66,15.66,0,0,0,10.08-4.89c6-6.41,20.17-23.79,23-46.69a5.57,5.57,0,0,1,2.88-4.25,5.36,5.36,0,0,1,4.91-.14c1.94.94,3.86,1.76,5.87,2.52l11.67,4.4ZM310.05,238a15.68,15.68,0,0,0-8,11.79c-2.49,20-15.11,35.41-20.42,41.11a5.66,5.66,0,0,1-3.63,1.75c-19.56,1.7-36.23-7.56-46.77-15.62a15.59,15.59,0,0,0-14.38-2.43,15.41,15.41,0,0,0-10,10.36c-6.75,23.55-20.48,35.72-26.07,39.86a5.39,5.39,0,0,1-2.71,1c-20.43,2-39.35-10.15-51.63-20.67a15.54,15.54,0,0,0-24.28,5.42c-8,18-26.2,29.42-33.66,33.52a5.29,5.29,0,0,1-4.32.38c-13.07-4.64-25-12.53-35.59-23.46C13.24,269,10,219.52,10,187.09,10,72.89,66.71,10,169.68,10,192,10,303.56,16,303.56,134.29c0,43.83,4.59,75.89,14.74,101.86A15.4,15.4,0,0,0,310.05,238Z" fill="#733217"/>
        <g>
          <path d="M318.3,236.15a15.4,15.4,0,0,0-8.25,1.88,15.68,15.68,0,0,0-8,11.79c-2.49,20-15.11,35.41-20.42,41.11a5.66,5.66,0,0,1-3.63,1.75c-19.56,1.7-36.23-7.56-46.77-15.62a15.59,15.59,0,0,0-14.38-2.43,15.41,15.41,0,0,0-10,10.36c-6.75,23.55-20.48,35.72-26.07,39.86a5.39,5.39,0,0,1-2.71,1c-20.43,2-39.35-10.15-51.63-20.67a15.54,15.54,0,0,0-24.28,5.42c-8,18-26.2,29.42-33.66,33.52a5.29,5.29,0,0,1-4.32.38c-13.07-4.64-25-12.53-35.59-23.46-2.31-7.83-4.34-15.6-6.13-23.26A493.18,493.18,0,0,1,10,187.09C10,72.89,66.71,10,169.68,10,192,10,303.56,16,303.56,134.29c0,40.12,3.85,70.37,12.28,95.12Q317,232.84,318.3,236.15Z" fill="#fff"/>
          <path d="M318.3,236.15a15.4,15.4,0,0,0-8.25,1.88,15.68,15.68,0,0,0-8,11.79c-2.49,20-15.11,35.41-20.42,41.11a5.66,5.66,0,0,1-3.63,1.75c-19.56,1.7-36.23-7.56-46.77-15.62a15.59,15.59,0,0,0-14.38-2.43,15.41,15.41,0,0,0-10,10.36c-6.75,23.55-20.48,35.72-26.07,39.86a5.39,5.39,0,0,1-2.71,1c-20.43,2-39.35-10.15-51.63-20.67a15.54,15.54,0,0,0-24.28,5.42c-8,18-26.2,29.42-33.66,33.52a5.29,5.29,0,0,1-4.32.38c-13.07-4.64-25-12.53-35.59-23.46-2.31-7.83-4.34-15.6-6.13-23.26,9.85,9.6,28.53,25.74,41.25,24,0,0,18.92,1.52,34-26.26a14.93,14.93,0,0,1,21-5.57c13.48,8.38,34.53,18.6,54.22,16.11,0,0,18.11-4.95,30.75-37.17a17.59,17.59,0,0,1,25.86-8.36c10.81,7,25.85,13.79,44,14.27,0,0,13,.42,22.66-37.51a12.43,12.43,0,0,1,15.23-9c1.39.36,2.85.72,4.35,1Q317,232.84,318.3,236.15Z" opacity="0.1"/>
        </g>
      </g>
    </g>
  </g>
</svg>
