<svg xmlns="http://www.w3.org/2000/svg" viewBox="0 0 440 320">
  <g id="Layer_2" data-name="Layer 2">
    <g id="Layer_1-2" data-name="Layer 1">
      <g id="BChick_001">
        <rect id="bottom_body_guide" data-name="bottom body guide" width="440" height="320" fill="#00a99d" opacity="0"/>
        <g id="BChick_001-2" data-name="BChick_001">
          <path id="BChick_001-color-base" d="M275.85,313c-141.55,0-211.94-89-243-187.36-.12-.36-.23-.73-.35-1.09v0C29,97,41.15,68.91,171,32.28,300.6-4.26,331.24,35,332.5,36.66l0,.05v0c13.14,29.34,33.84,50,62.1,78.3C447.43,167.82,447.43,313,275.85,313Z" fill="#fff"/>
          <path id="BChick_001-shadow-custom" d="M425.49,200.87C423.3,256.29,383.09,313,275.85,313c-110.64,0-177.8-54.34-216.67-125.06,46.55,51.6,113.74,86.51,208.85,86.51C354.78,274.45,403.4,242.19,425.49,200.87Z" fill="#dbdbdb"/>
          <path id="BChick_001-bchick-outline" d="M275.85,318c-66.64,0-122.57-19.52-166.24-58-36.41-32.11-63.83-76.8-81.49-132.83l-.18-.55-.14-.46a5.28,5.28,0,0,1-.24-1.1c-4.34-34.27,18-62.56,142.12-97.56C224.46,12,268.63,7.91,301,15.25c25.61,5.81,34.6,17.17,35.54,18.44.09.13.18.26.26.4a5,5,0,0,1,.41.84c10.09,22.41,24.51,39.53,46,61.47a5,5,0,1,1-7.15,7C354.41,81.3,338.85,62.84,328.2,39.3c-1.49-1.72-9.38-9.76-29.49-14.31-21.11-4.78-60.16-6.56-126.31,12.1C113.47,53.71,75,69.61,54.87,85.71c-17.55,14-18.82,26.43-17.42,37.76l0,.12.15.46c26.47,84,89.26,184,238.22,184,58.84,0,102.42-17.59,126-50.86,19.85-28,24.3-65.82,11.91-101.17a5,5,0,0,1,9.43-3.31c13.47,38.41,8.54,79.63-13.18,110.26C392.2,288.05,354.46,318,275.85,318Z" fill="#881f2b"/>
        </g>
      </g>
    </g>
  </g>
</svg>
