<svg xmlns="http://www.w3.org/2000/svg" xmlns:xlink="http://www.w3.org/1999/xlink" viewBox="0 0 320 200">
  <defs>
    <clipPath id="clip-path">
      <circle cx="215.91" cy="99.66" r="40" fill="none"/>
    </clipPath>
    <clipPath id="clip-path-2">
      <circle cx="108.92" cy="99.66" r="40" fill="none"/>
    </clipPath>
  </defs>
  <g id="Layer_2" data-name="Layer 2">
    <g id="Layer_1-2" data-name="Layer 1">
      <g id="Eyes_002">
        <rect id="eyes_guide_center" data-name="eyes guide center" width="320" height="200" fill="blue" opacity="0"/>
        <g id="Eyes_002-2" data-name="Eyes_002">
          <g>
            <path d="M257.82,107.64a38.66,38.66,0,0,1-73.76,16.21,40,40,0,0,0,71.55-29.12A38.55,38.55,0,0,1,257.82,107.64Z" opacity="0.1"/>
            <circle cx="215.91" cy="99.66" r="40" fill="#fff"/>
            <g clip-path="url(#clip-path)">
              <g>
                <g>
                  <circle cx="230.11" cy="99.66" r="30" fill="#282828"/>
                  <path d="M230.11,74.66a25,25,0,1,1-25,25,25,25,0,0,1,25-25m0-5a30,30,0,1,0,30,30,30,30,0,0,0-30-30Z" fill="#1c1c1c"/>
                </g>
                <circle cx="230.11" cy="99.66" r="12.36" fill="#1c1c1c"/>
              </g>
            </g>
            <path d="M251.1,80.63a61.84,61.84,0,0,0-75.17,17.71A40,40,0,0,1,251.1,80.63Z" opacity="0.1"/>
            <g id="Eyes_002-eyes-outline">
              <path d="M253.09,120.71a1.09,1.09,0,0,0-1.22.94s-.41,2.72-3.32,6.43a1.06,1.06,0,0,0-.34-1.17,1,1,0,0,0-.38-.2,18.88,18.88,0,0,0,2.81-4.91,1.08,1.08,0,0,0-.54-1.36,40,40,0,1,0-22.41,17.45,1,1,0,0,0,.53.25,1.09,1.09,0,0,0,.44,0c.11,0,.59-.15,1.35-.38a1.1,1.1,0,0,0,.88,1.32,1.19,1.19,0,0,0,.42,0,34.26,34.26,0,0,0,12.83-6.47c-.24.21-.47.41-.73.61a1.09,1.09,0,1,0,1.36,1.71c8.43-6.74,9.24-12.74,9.27-13A1.09,1.09,0,0,0,253.09,120.71Zm-71.18-21a34,34,0,1,1,34,34A34,34,0,0,1,181.91,99.66Z" fill="#881f2b"/>
              <path d="M242.6,135.52a1.1,1.1,0,0,0-1.54-.16c-5.58,4.49-13.26,4-13.34,4a1.09,1.09,0,0,0-.26,2.16l.1,0c.35,0,8.6.59,14.87-4.46A1.1,1.1,0,0,0,242.6,135.52Z" fill="#881f2b"/>
              <path d="M247.43,133.21c-4.24,5-10.91,7.73-11,7.76a1.09,1.09,0,0,0,.23,2.09,1.06,1.06,0,0,0,.58-.06,33.81,33.81,0,0,0,11.84-8.38,1.09,1.09,0,0,0-1.67-1.41Z" fill="#881f2b"/>
            </g>
          </g>
          <g>
            <path d="M150.82,107.64a38.66,38.66,0,0,1-37.48,38.64l-.21-6.84a40,40,0,0,0,35.48-44.71A38.55,38.55,0,0,1,150.82,107.64Z" opacity="0.1"/>
            <circle cx="108.92" cy="99.66" r="40" fill="#fff"/>
            <g clip-path="url(#clip-path-2)">
              <g>
                <g>
                  <circle cx="123.11" cy="99.66" r="30" fill="#282828"/>
                  <path d="M123.11,74.66a25,25,0,1,1-25,25,25,25,0,0,1,25-25m0-5a30,30,0,1,0,30,30,30,30,0,0,0-30-30Z" fill="#1c1c1c"/>
                </g>
                <circle cx="123.11" cy="99.66" r="12.36" fill="#1c1c1c"/>
              </g>
            </g>
            <path d="M144.11,80.63A61.84,61.84,0,0,0,68.94,98.34a40,40,0,0,1,75.17-17.71Z" opacity="0.1"/>
            <g id="Eyes_002-eyes-outline-2" data-name="Eyes_002-eyes-outline">
              <path d="M146.09,120.71a1.09,1.09,0,0,0-1.22.94s-.41,2.72-3.31,6.43a1.09,1.09,0,0,0-.34-1.17,1,1,0,0,0-.39-.2,18.91,18.91,0,0,0,2.82-4.91,1.09,1.09,0,0,0-.55-1.36,40,40,0,1,0-22.4,17.45,1,1,0,0,0,.52.25,1.09,1.09,0,0,0,.44,0c.11,0,.6-.15,1.35-.38a1.1,1.1,0,0,0,.88,1.32,1.19,1.19,0,0,0,.42,0,34.26,34.26,0,0,0,12.83-6.47c-.24.21-.47.41-.73.61a1.1,1.1,0,0,0-.17,1.54,1.08,1.08,0,0,0,1.54.17c8.43-6.74,9.23-12.74,9.26-13A1.09,1.09,0,0,0,146.09,120.71Zm-71.17-21a34,34,0,1,1,34,34A34,34,0,0,1,74.92,99.66Z" fill="#881f2b"/>
              <path d="M135.6,135.52a1.1,1.1,0,0,0-1.54-.16c-5.58,4.49-13.26,4-13.33,4a1.09,1.09,0,0,0-.27,2.16l.1,0c.35,0,8.61.59,14.87-4.46A1.1,1.1,0,0,0,135.6,135.52Z" fill="#881f2b"/>
              <path d="M140.43,133.21c-4.24,5-10.91,7.73-11,7.76a1.08,1.08,0,0,0-.6,1.42,1.07,1.07,0,0,0,.83.67,1.1,1.1,0,0,0,.59-.06c.29-.12,7.23-2.94,11.83-8.38a1.09,1.09,0,0,0-1.67-1.41Z" fill="#881f2b"/>
            </g>
          </g>
        </g>
      </g>
    </g>
  </g>
</svg>
