<svg xmlns="http://www.w3.org/2000/svg" viewBox="0 0 660 650">
  <g id="Layer_2" data-name="Layer 2">
    <g id="Layer_1-2" data-name="Layer 1">
      <g id="Hair_001">
        <rect id="hair_guide_center_bottom" data-name="hair guide center bottom" width="660" height="650" fill="#39b54a" opacity="0"/>
        <g id="Hair_001-2" data-name="Hair_001">
          <path id="Hair_001-color-base" d="M442.27,293.81a350.13,350.13,0,0,1-20.33,31.34S323.59,313,284,395.56a18.07,18.07,0,0,1-31.49,1.86c-14.64-22.8-30.65-57.06-25.54-92.7,8.86-61.84,55.48-90.51,70.17-36.88-3.11-12-26.62-114.85,83-123.19,72.79-5.53,24.29,83.79,19.24,92.76,3.94-6.72,34.9-57.36,59.6-28.36C475,227.81,458.12,266.28,442.27,293.81Z" fill="#ffec51"/>
          <path id="Hair_001-shadow-custom" d="M442.27,293.81a350.13,350.13,0,0,1-20.33,31.34S323.59,313,284,395.56a18,18,0,0,1-20.75,9.63C267,380.6,285.51,315.43,377.41,300.4,406.5,295.63,427.36,293.83,442.27,293.81Z" fill="#ffc00e"/>
          <ellipse id="Hair_001-highlight" cx="261.02" cy="286.89" rx="13.71" ry="10.49" transform="translate(-59.98 504.58) rotate(-81.85)" fill="#fff" opacity="0.7"/>
          <path id="Hair_001-hair-outline" d="M393.39,154.87c9.77,1.39,12.88,5.58,14.37,8.6,3.76,7.62,2.61,21.23-3.24,38.32a202.07,202.07,0,0,1-13.79,30.72,10,10,0,0,0,17.34,10c10-17.09,25.38-33.64,35.37-32.21,2.63.37,5.31,2.15,8,5.28,6.07,7.13,4.17,20.24,1.51,30-3.35,12.29-9.86,26.86-19.33,43.31-6.48,11.25-12.84,20.68-16.5,25.92a181.36,181.36,0,0,0-51.67,4.95c-41.64,10.27-72.9,35-90.41,71.55a7.92,7.92,0,0,1-8.41,4.43,7.24,7.24,0,0,1-.88-.18A7.81,7.81,0,0,1,261,392c-13.57-21.12-28.75-53.17-24.06-85.89,2.52-17.61,8.51-33.32,16.85-44.23,6.36-8.3,13.69-13,19.14-12.19,5.92.84,11.25,8.42,14.64,20.77a10,10,0,0,0,19.32-5.16c-1.31-5-12.19-50.08,9.62-80.63,12.61-17.66,34.3-27.77,64.48-30.06a57.14,57.14,0,0,1,12.43.24m1.42-9.9a67.11,67.11,0,0,0-14.61-.32c-109.64,8.34-86.13,111.23-83,123.19-4.92-17.95-13.41-26.68-22.86-28-18.81-2.7-41.42,23.76-47.31,64.9-5.11,35.65,10.9,69.91,25.54,92.71a17.78,17.78,0,0,0,10.74,7.77c.63.16,1.26.28,1.9.38a17.9,17.9,0,0,0,18.85-10c39.55-82.55,137.9-70.41,137.9-70.41a350.13,350.13,0,0,0,20.33-31.34c15.85-27.53,32.72-66,16.77-84.76-4.58-5.38-9.38-8-14.18-8.7-21.08-3-42.21,31.59-45.42,37.06,4.66-8.29,46.41-85.13-4.63-92.44Z" fill="#881f2b"/>
        </g>
      </g>
    </g>
  </g>
</svg>
