<svg xmlns="http://www.w3.org/2000/svg" viewBox="0 0 379.12 244.13" >
  <g id="Layer_2" data-name="Layer 2">
    <g id="Hairs">
      <g id="_28" data-name="28">
        <path d="M90.52,242s78.29-9.68,107.14-21.68c0,0,11,3.33,28.59,3.33,0,0,43.15,24,80.94-1.8l-56.43-40.08-71.19-.26-66.93,35.75Z" opacity="0.1"/>
        <g>
          <path d="M379,202.67a4.34,4.34,0,0,0-.95-3.66c-1.21-1.42-30.2-35-77.88-52.65C252,128.47,182.32,156.85,179.38,158.07a4.33,4.33,0,0,0-1.77,6.65,4.19,4.19,0,0,0,.94.89c2,1.43,50.53,35.32,94,52.35,44.74,17.54,101.84-11.05,104.24-12.27A4.34,4.34,0,0,0,379,202.67ZM275.67,209.9c-33.05-13-70.2-36.68-85.26-46.7,19.31-6.77,70.68-22.11,106.78-8.72,35.72,13.25,61,36.42,70.33,45.92C352.63,206.86,309.32,223.09,275.67,209.9Z" fill="#733217"/>
          <path id="hair_0" d="M367.52,200.4a194.33,194.33,0,0,1-31.1,10.44c-13.59,3.27-29.39,5.33-44.53,3.22a72,72,0,0,1-16.22-4.16c-33.05-13-70.2-36.68-85.26-46.7a270.43,270.43,0,0,1,46.8-11.87c19.85-3.05,41.84-3.57,60,3.15a188.84,188.84,0,0,1,40.09,20.88A203.86,203.86,0,0,1,367.52,200.4Z" fill="#ffec51"/>
          <path d="M367.52,200.4a194.33,194.33,0,0,1-31.1,10.44c-2.9-5.81-13.47-20.47-48.36-28.48,4.76,1,38.3,7.76,49.22-7A203.86,203.86,0,0,1,367.52,200.4Z" fill="#fff" opacity="0.7"/>
          <path d="M291.89,214.06a72,72,0,0,1-16.22-4.16c-33.05-13-70.2-36.68-85.26-46.7a270.43,270.43,0,0,1,46.8-11.87c-5.39,3-12.18,7.33-16.75,11.77C220.46,163.1,254.8,201,291.89,214.06Z" fill="#ffc00e"/>
        </g>
        <g>
          <path d="M5.72,57a4.37,4.37,0,0,0-2.35,3c-.41,1.82-9.81,45.16,4.7,93.93,14.66,49.31,79.22,88,82,89.59a4.33,4.33,0,0,0,6.38-2.58,4.24,4.24,0,0,0,.15-1.28C96.49,237.17,94.45,178,82,133.05c-12.86-46.33-70-74.81-72.46-76A4.35,4.35,0,0,0,5.72,57Zm67.9,78.33c9.5,34.22,12.86,78.18,13.89,96.25-17-11.38-60.16-43.25-71.13-80.16C5.5,114.92,8.84,80.78,10.83,67.61,25,75.64,64,100.53,73.62,135.37Z" fill="#733217"/>
          <path d="M10.83,67.61a194.27,194.27,0,0,1,27,18.61c10.78,8.89,21.93,20.29,29.33,33.67a71,71,0,0,1,6.42,15.48c9.5,34.22,12.86,78.18,13.89,96.25a271.08,271.08,0,0,1-37.62-30.3c-14.36-14-28-31.31-33.51-49.86A188.53,188.53,0,0,1,9,106.85,203.4,203.4,0,0,1,10.83,67.61Z" fill="#ffec51"/>
          <path d="M10.83,67.61a194.27,194.27,0,0,1,27,18.61C35,92,29.59,109.28,44.15,142c-2-4.43-16.81-35.29-35.17-35.15A203.4,203.4,0,0,1,10.83,67.61Z" fill="#fff" opacity="0.7"/>
          <path d="M67.2,119.89a71,71,0,0,1,6.42,15.48c9.5,34.22,12.86,78.18,13.89,96.25a271.08,271.08,0,0,1-37.62-30.3c5.68,2.47,13.19,5.34,19.49,6.33C69.38,207.65,79.09,157.38,67.2,119.89Z" fill="#ffc00e"/>
        </g>
        <g>
          <path d="M359.84,63.46a5,5,0,0,0-3.17-3c-2.05-.65-50.95-15.8-108.48-4C190,68.35,139.09,138.71,137,141.71a5,5,0,0,0,2.33,7.6,5.49,5.49,0,0,0,1.46.3c2.87.15,71.1,3.74,124.05-6.1,54.57-10.15,93-73,94.66-75.7A5,5,0,0,0,359.84,63.46ZM263,133.68c-40.3,7.49-91.18,6.94-112.07,6.32,14.79-18.42,55.77-64.84,99.31-73.76,43.11-8.84,82-1.58,97,2C336.52,83.7,304,126.05,263,133.68Z" fill="#733217"/>
          <path d="M347.17,68.27a224.43,224.43,0,0,1-24.1,29.22c-11.31,11.51-25.54,23.19-41.67,30.36A82.76,82.76,0,0,1,263,133.68c-40.3,7.49-91.18,6.94-112.07,6.32a312.68,312.68,0,0,1,38.62-40.23c17.58-15.1,38.81-29,60.69-33.53a217.46,217.46,0,0,1,52-4A234.08,234.08,0,0,1,347.17,68.27Z" fill="#ffec51"/>
          <path d="M347.17,68.27a224.43,224.43,0,0,1-24.1,29.22c-6.38-3.92-25.69-11.83-64.78,1.64,5.3-1.88,42.27-15.8,43.95-36.92A234.08,234.08,0,0,1,347.17,68.27Z" fill="#fff" opacity="0.7"/>
          <path d="M281.4,127.85A82.76,82.76,0,0,1,263,133.68c-40.3,7.49-91.18,6.94-112.07,6.32a312.68,312.68,0,0,1,38.62-40.23c-3.42,6.29-7.47,14.64-9.24,21.77C180.27,121.54,237.11,137.75,281.4,127.85Z" fill="#ffc00e"/>
        </g>
        <g>
          <path d="M361.29,136.22a5,5,0,0,0-2.66-3.46c-1.92-1-47.85-23.57-106.52-20.91-59.32,2.68-120.62,64.23-123.2,66.85a5,5,0,0,0,1.12,7.87,5.19,5.19,0,0,0,1.39.53c2.82.6,69.64,14.8,123.49,13.35,55.48-1.5,103.31-57.61,105.32-60A5,5,0,0,0,361.29,136.22ZM254.64,190.45c-41,1.1-91.16-7.38-111.69-11.26,17.49-15.89,65.21-55.33,109.62-57.34,43.95-2,81.26,11.25,95.46,17.15C335.1,152.57,296.36,189.33,254.64,190.45Z" fill="#733217"/>
          <path d="M348,139a224.18,224.18,0,0,1-28.37,25.1c-13,9.6-28.85,18.91-45.9,23.47a82.49,82.49,0,0,1-19.12,2.88c-41,1.1-91.16-7.38-111.69-11.26a313,313,0,0,1,44.43-33.7c19.73-12.17,42.87-22.63,65.19-23.64a217.4,217.4,0,0,1,52,4.14A235,235,0,0,1,348,139Z" fill="#ffec51"/>
          <path d="M348,139a224.18,224.18,0,0,1-28.37,25.1c-5.69-4.87-23.53-15.7-64.24-8.5,5.53-1,44.22-9,49.18-29.61A235,235,0,0,1,348,139Z" fill="#fff" opacity="0.7"/>
          <path d="M273.76,187.57a82.49,82.49,0,0,1-19.12,2.88c-41,1.1-91.16-7.38-111.69-11.26a313,313,0,0,1,44.43-33.7c-4.36,5.68-9.66,13.29-12.52,20.06C174.86,165.55,228.46,190.44,273.76,187.57Z" fill="#ffc00e"/>
        </g>
        <g>
          <path d="M271.61,1.21A5,5,0,0,0,267.39.09c-2.11.41-52.29,10.51-97.17,48.4C124.86,86.8,113.82,173,113.37,176.61a5,5,0,0,0,5.69,5.55,4.85,4.85,0,0,0,1.42-.43c2.6-1.24,64.22-30.75,106-64.74,43-35,46.73-108.66,46.87-111.77A5,5,0,0,0,271.61,1.21Zm-51.44,108c-31.8,25.86-76.74,49.74-95.37,59.19,4.16-23.25,17.92-83.62,51.88-112.3,33.61-28.39,71.26-40.64,86.11-44.63C260.83,30.14,252.55,82.9,220.17,109.24Z" fill="#733217"/>
          <path d="M262.79,11.5a224.59,224.59,0,0,1-7.17,37.2c-4.42,15.51-11.33,32.58-22.05,46.6a83,83,0,0,1-13.4,13.94c-31.8,25.86-76.74,49.74-95.37,59.19a312.73,312.73,0,0,1,14.65-53.8c8.2-21.68,20.17-44.09,37.23-58.5a218.26,218.26,0,0,1,43.76-28.45A235.56,235.56,0,0,1,262.79,11.5Z" fill="#ffec51"/>
          <path d="M262.79,11.5a224.59,224.59,0,0,1-7.17,37.2c-7.48-.39-28.22,1.91-56.09,32.44C203.28,77,229.08,47,220.44,27.68A235.56,235.56,0,0,1,262.79,11.5Z" fill="#fff" opacity="0.7"/>
          <path d="M233.57,95.3a83,83,0,0,1-13.4,13.94c-31.8,25.86-76.74,49.74-95.37,59.19a312.73,312.73,0,0,1,14.65-53.8c0,7.16.45,16.42,2.31,23.54C141.76,138.17,199.42,125.19,233.57,95.3Z" fill="#ffc00e"/>
        </g>
        <g>
          <path d="M130.26,6.47a5,5,0,0,0-4.18,1.26c-1.58,1.46-39,36.37-57.37,92.16-18.54,56.4,17.23,135.56,18.77,138.9a5,5,0,0,0,7.75,1.75,5.2,5.2,0,0,0,1-1.11c1.57-2.42,38.57-59.85,56.33-110.7,18.29-52.4-17.18-117-18.7-119.76A5,5,0,0,0,130.26,6.47Zm12.83,119c-13.51,38.7-39.26,82.6-50.17,100.41-8.65-22-28.59-80.6-14.7-122.83C92,61.21,117.59,31,128.14,19.86,136.25,36.76,156.85,86,143.09,125.43Z" fill="#733217"/>
          <path d="M128.14,19.86a223.35,223.35,0,0,1,13.4,35.43c4.37,15.53,7.44,33.68,5.65,51.24a82.51,82.51,0,0,1-4.1,18.9c-13.51,38.7-39.26,82.6-50.17,100.41a312.75,312.75,0,0,1-15.74-53.49c-4.38-22.77-5.94-48.12,1-69.34a217.75,217.75,0,0,1,22.35-47.17A234.82,234.82,0,0,1,128.14,19.86Z" fill="#ffec51"/>
          <path d="M128.14,19.86a223.35,223.35,0,0,1,13.4,35.43c-6.57,3.59-23,16.43-30.76,57,1-5.54,7.28-44.54-10.21-56.49A234.82,234.82,0,0,1,128.14,19.86Z" fill="#fff" opacity="0.7"/>
          <path d="M147.19,106.53a82.51,82.51,0,0,1-4.1,18.9c-13.51,38.7-39.26,82.6-50.17,100.41a312.75,312.75,0,0,1-15.74-53.49c3.76,6.09,9,13.74,14.31,18.83C91.49,191.18,133.79,149.9,147.19,106.53Z" fill="#ffc00e"/>
        </g>
        <g>
          <path d="M271.22,86.53a5,5,0,0,0-4-1.72c-2.15.1-53.27,2.8-103.17,33.77-50.45,31.31-73.89,115-74.86,118.5a5,5,0,0,0,6.29,6.1c2.75-.85,68-21.09,114.28-48.65,47.68-28.4,62-100.72,62.61-103.78A5,5,0,0,0,271.22,86.53Zm-66.59,99.41c-35.22,21-83.15,38.07-103,44.71,7.5-22.4,29.88-80.13,67.65-103.57C206.7,103.87,245.73,97.22,261,95.43,256.35,113.59,240.49,164.58,204.63,185.94Z" fill="#733217"/>
          <path d="M261,95.43a223.76,223.76,0,0,1-12.5,35.76c-6.63,14.71-15.94,30.59-28.59,42.9a82.81,82.81,0,0,1-15.28,11.85c-35.22,21-83.15,38.07-103,44.71A312.9,312.9,0,0,1,124,179.55c11.27-20.26,26.36-40.69,45.34-52.47a217.78,217.78,0,0,1,47.43-21.79A234.67,234.67,0,0,1,261,95.43Z" fill="#ffec51"/>
          <path d="M261,95.43a223.76,223.76,0,0,1-12.5,35.76c-7.34-1.47-28.2-2.21-60.21,23.95,4.32-3.6,34.19-29.45,28.46-49.85A234.67,234.67,0,0,1,261,95.43Z" fill="#fff" opacity="0.7"/>
          <path d="M219.91,174.09a82.81,82.81,0,0,1-15.28,11.85c-35.22,21-83.15,38.07-103,44.71A312.9,312.9,0,0,1,124,179.55c-1,7.08-1.94,16.31-1.13,23.62C122.85,203.17,181.78,198.71,219.91,174.09Z" fill="#ffc00e"/>
        </g>
      </g>
    </g>
  </g>
</svg>
