<svg xmlns="http://www.w3.org/2000/svg" viewBox="0 0 660 650">
  <g id="Layer_2" data-name="Layer 2">
    <g id="Layer_1-2" data-name="Layer 1">
      <g id="Hair_012">
        <rect id="hair_guide_center_bottom" data-name="hair guide center bottom" width="660" height="650" fill="#39b54a" opacity="0"/>
        <g id="Hair_012-2" data-name="Hair_012">
          <path id="Hair_012-color-base" d="M477.23,301.94a5,5,0,0,0,.54,3.83l0,0a3.53,3.53,0,0,0,.59.76,3,3,0,0,1,.19.23l0,0h0a4.91,4.91,0,0,0,2.17,1.22q2.81.74,5.29,1.57c23.41,7.79,27.59,21.34,28.1,23.44.12,14.47-16.72,25.36-23.88,29.33l-27.49-29.7L425,309.15l-1.35,0c-39.75-1.22-77.67,14.7-103.7,29.22l0,0q-2.07,1.14-4,2.28-4.71,2.73-9,5.44l0,0c-2.14,1.34-4.22,2.67-6.21,4l-.06,0a284.48,284.48,0,0,0-30.8,23.12c-5.47,1.9-39,12.38-77.29-2.12a114.76,114.76,0,0,1-16.65-23.88,124.48,124.48,0,0,1-6.55-14.39c-8-21-12.32-49.54-.71-83,5.27-6.61,54.55-66.07,118.23-62.34l1.27.42c9.14,3.06,51.16,18.19,87,47.9,4.38,3.63,8.67,7.48,12.8,11.56a5,5,0,1,0,7-7.11c-.57-.57-1.15-1.13-1.74-1.69s-1-1-1.57-1.5l-.28-.26c-1.14-1.08-2.28-2.14-3.44-3.16-3.27-3-6.61-5.77-10-8.46a262.41,262.41,0,0,0-29.68-20.41c-6.75-4-13.31-7.56-19.46-10.63-7.15-3.57-13.74-6.53-19.41-8.9a37,37,0,0,1-.85-8.44,73.75,73.75,0,0,1,23.1-25.55c22.38-15.49,51.4-18.75,86.25-9.68.94.41,4,1.81,8.61,4.28,18.14,9.81,59.92,36.52,86.48,86.17h0q3.72,7,7,14.51c.72,2.5,6.75,24.89-2.44,41.15-4.23,7.47-11.23,12.62-20.83,15.32a85.7,85.7,0,0,0-13.31-4.63A5,5,0,0,0,477.23,301.94Z" fill="#ffec51"/>
          <g id="Hair_012-shadow-custom">
            <path d="M519.91,246.54q-3.28-7.56-7-14.51c16.18,58.72-43.25,54-43.25,54,.14,8.53,5.92,16.88,8.13,19.75a5,5,0,0,1,5.56-7.39A85.7,85.7,0,0,1,496.64,303c9.6-2.7,16.6-7.85,20.83-15.32C526.66,271.43,520.63,249,519.91,246.54Z" fill="#ffc00e"/>
            <path d="M175.81,347.23a114.76,114.76,0,0,0,16.65,23.88c38.3,14.5,71.82,4,77.29,2.12a284.48,284.48,0,0,1,30.8-23.12C242,384.81,175.81,347.23,175.81,347.23Z" fill="#ffc00e"/>
            <path d="M387.82,233.64q1.73,1.56,3.44,3.16l.28.26c.53.5,1,1,1.57,1.5s1.17,1.12,1.74,1.69a5,5,0,1,1-7,7.11c-4.13-4.08-8.42-7.93-12.8-11.56,2.7,6.56,12,13.22,24.08,16.5,15.78,4.29,30.36,1.23,32.55-6.85s-8.82-18.09-24.6-22.39a53.09,53.09,0,0,0-13.8-1.93c-13-6.95-36-13.8-45.1-16.36a262.41,262.41,0,0,1,29.68,20.41C381.21,227.87,384.55,230.68,387.82,233.64Z" fill="#ffc00e"/>
            <path d="M486.08,309.62c11.76,11.34-31.25-.9-51.05-6.94-4.23-8.06-20.37-21.59-20.37-21.59,5,10.45,2.57,16.19.4,18.86-43.63,2.64-79.43,26.26-95.1,38.38,26-14.52,64-30.44,103.7-29.22l1.35,0,37.8,23.54L480,351.24l10.32,11.15c6.38-3.55,20.48-12.59,23.35-24.78a18.58,18.58,0,0,0,.53-4.55C513.67,331,509.49,317.41,486.08,309.62Z" fill="#ffc00e"/>
            <path d="M308.44,176.8a37,37,0,0,0,.85,8.44c5.67,2.37,12.26,5.33,19.41,8.9C319.06,186.54,308.44,176.8,308.44,176.8Z" fill="#ffc00e"/>
          </g>
          <path d="M458.1,344.09c-8.38-2.52-20.34-4.45-37.31-4.45-65,0-80,55.83-150.13,55.83a68.65,68.65,0,0,1-28.92-6.92c19-1.08,31.55-5.95,32.47-6.31l.84-.33.68-.62c.64-.59,59.69-53.6,127.46-61.32C420.47,323.68,440.63,330.73,458.1,344.09Z" opacity="0.1"/>
          <g id="Hair_012-highlight">
            <path d="M286.78,187.48c-63.68-3.73-113,55.73-118.23,62.34-11.61,33.48-7.31,62,.71,83-.43-17.1,3.16-48.93,29.53-81.76-7.13,12.32-8.52,24.38-2.72,28.67,6.79,5,20.85-2.46,31.4-16.72s13.62-29.88,6.83-34.91c-3.46-2.56-8.8-1.87-14.6,1.3,16.77-14.67,39-28.92,68.35-41.52Z" fill="#fff" opacity="0.7"/>
            <path d="M331.54,151.25a73.75,73.75,0,0,0-23.1,25.55s47.47-45.54,118-31c-4.6-2.47-7.67-3.87-8.61-4.28C382.94,132.5,353.92,135.76,331.54,151.25Z" fill="#fff" opacity="0.7"/>
            <path d="M488.87,354.36c-1.47-1-5.63-2.26-8.89-3.12l10.32,11.15c6.38-3.55,20.48-12.59,23.35-24.78C506.78,347.64,488.87,354.36,488.87,354.36Z" fill="#fff" opacity="0.7"/>
          </g>
          <path id="Hair_012-hair-outline" d="M526.17,292.62c11.81-20.88,3.58-48.12,3.22-49.27l-.18-.5c-17.83-41.33-46.14-69.18-66.75-85.26-22.36-17.45-40.35-25.06-41.11-25.37l-.66-.23c-47.62-12.48-78.12-.71-95.32,11.38-18.83,13.22-26.13,29.44-26.43,30.12l-.35.78-.06.84a36.1,36.1,0,0,0,.05,5.89c-5.44-2-8.85-3.08-9.41-3.25l-.56-.17-.58,0c-30.24-2-62,9-91.76,31.72a204.65,204.65,0,0,0-36.15,35.1l-.47.62-.26.74c-14.52,41.1-6.52,75.1,2.75,96.38,10,23.06,23.44,36.31,24,36.86l.73.71.95.37a126.86,126.86,0,0,0,30.31,7.69c3.84.49,7.56.79,11.14.93,1.73.07,3.42.1,5.08.1,2.56,0,5-.08,7.39-.21,19-1.08,31.55-5.95,32.47-6.31l.84-.33.68-.62c.64-.59,59.69-53.6,127.46-61.32,17.28,3.71,37.44,10.76,54.91,24.12q3.76,2.88,7.35,6.16l11.21,12.12L488,374.62l3.29-1.5c.25-.11,1.53-.7,3.45-1.75,8.6-4.69,30.06-18.46,29.43-39l-.07-.67c-.11-.68-2.24-12.16-16.18-22.23A40.55,40.55,0,0,0,526.17,292.62ZM496.64,303a85.7,85.7,0,0,0-13.31-4.63,5,5,0,0,0-2.54,9.67c28.09,7.37,32.84,22.76,33.39,25,.12,14.47-16.72,25.36-23.88,29.33l-4.4-4.76,0,0-7.29-7.87-7.74-8.36-8-8.69L425,309.15l-1.35,0a150,150,0,0,0-19.12.67,181.63,181.63,0,0,0-32.18,6.3c-21.89,6.31-41.46,15.87-56.46,24.55a300.9,300.9,0,0,0-46.15,32.6,111.62,111.62,0,0,1-32.59,5.4l-2,0c-3.75,0-7.71-.11-11.84-.48a116.3,116.3,0,0,1-30.86-7.07c-5.87-6.24-47.37-53.64-23.91-121.29,5.27-6.61,54.55-66.07,118.23-62.34,6,2,61.21,20.52,101.05,59.88a5,5,0,1,0,7-7.11c-28.59-28.25-63.84-45.93-85.56-55a37,37,0,0,1-.85-8.44,73.75,73.75,0,0,1,23.1-25.55c22.38-15.49,51.4-18.75,86.25-9.68,5,2.19,70.63,32.28,102.12,105,.72,2.5,6.75,24.89-2.44,41.15C513.24,295.16,506.24,300.31,496.64,303Z" fill="#881f2b"/>
        </g>
      </g>
    </g>
  </g>
</svg>
