<svg xmlns="http://www.w3.org/2000/svg" viewBox="0 0 259.2 181.91">
  <g id="Layer_2" data-name="Layer 2">
    <g id="Hair">
      <g id="_29" data-name="29">
        <path d="M218.17,15.84a5,5,0,0,0-3.3-1.86C214,13.87,130.3,3.38,95.23,0h-.34a5.56,5.56,0,0,0-.58,0,2.93,2.93,0,0,0-.41.07,3.57,3.57,0,0,0-.55.11h-.06c-1.73.53-42.83,13.34-69,42.64a5,5,0,0,0-.4.51C22.66,45.17-6.35,88.52,1.28,150.27a5.05,5.05,0,0,0,.93,2.34c.44.61,11.14,15,34.32,27.65a0,0,0,0,0,0,0l.06,0a4.78,4.78,0,0,0,.61.28l.23.07.5.13.25,0a3.79,3.79,0,0,0,.67.06h.06a4.88,4.88,0,0,0,.76-.07h.09l5-.89h0c13.18-2.42,49.67-9.47,76.63-18a5.31,5.31,0,0,0,1.37-.68c.36-.25,34.51-23.62,113.36-35.3q8.93-1.32,18.63-2.43a5,5,0,0,0,4.44-5C259.18,116.41,258.26,66.64,218.17,15.84Zm-189,90.9a245.19,245.19,0,0,0,2.64,59A99.26,99.26,0,0,1,11,147.66C4.76,92.8,29.74,52.72,32,49.23A124.41,124.41,0,0,1,58.58,27.52C41.87,47.56,31.85,74.31,29.18,106.74Zm180.56,13.6c-59.17,11.75-87.29,29.11-92.05,32.26-16.62,5.21-36.85,9.85-52.75,13.16-9.47,2-17.41,3.47-22.14,4.34a237.73,237.73,0,0,1-3.66-62.54C43,60.69,62.06,27.91,95.77,10.1c32.57,3.2,102.9,11.93,115.8,13.54,30.08,39,36.13,77.64,37.33,90.49C234.57,115.87,221.54,118,209.74,120.34Z" fill="#733217"/>
        <path d="M31.82,165.73A99.26,99.26,0,0,1,11,147.66C4.76,92.8,29.74,52.72,32,49.23A124.41,124.41,0,0,1,58.58,27.52c-16.71,20-26.73,46.79-29.4,79.22-.13,1.58-.24,3.16-.34,4.72h0A247.7,247.7,0,0,0,31.82,165.73Z" fill="#ffec51"/>
        <path d="M248.9,114.13c-86.19,10.48-125.5,34.69-131.21,38.47-26.51,8.31-62.21,15.18-74.89,17.5a240.26,240.26,0,0,1-4.18-53.91v0q.16-4.24.52-8.61.48-5.76,1.26-11.24c5.83-40.9,24.42-69.87,55.37-86.22,7.09.7,16,1.65,25.66,2.74,22.81,2.57,50.1,5.87,69,8.19,10,1.22,17.62,2.17,21.1,2.61C241.65,62.6,247.7,101.28,248.9,114.13Z" fill="#ffec51"/>
        <path d="M31.82,165.73A99.26,99.26,0,0,1,11,147.66s9.87-9.92,17.8-36.19A247.7,247.7,0,0,0,31.82,165.73Z" fill="#ffc00e"/>
        <path d="M248.9,114.13c-86.19,10.48-125.5,34.69-131.21,38.47-26.51,8.31-62.21,15.18-74.89,17.5a240.26,240.26,0,0,1-4.18-53.91c2.08,8.4,7.59,28.27,14.77,35,0,0,45.11,5.79,63.49-8.51,0,0,18.73-29.27,38.13-44.76,0,0-.17,19.89-4.76,27.9.58-.34,18.94-11.18,21.95-19.56,0,0-.85,10-3.06,13.78,0,0,42.81-9.48,40.51-46.61C207.78,43.3,195.16,26.35,190.47,21c10,1.22,17.62,2.17,21.1,2.61C241.65,62.6,247.7,101.28,248.9,114.13Z" fill="#ffc00e"/>
        <path d="M100.79,54.36C94.09,66,82.87,72,75.72,67.9c-5.8-3.35-7.13-12.39-3.83-21.89C55,65,44.69,86.28,40.4,96.32c5.83-40.9,24.42-69.87,55.37-86.22,7.09.7,16,1.65,25.66,2.74A94.6,94.6,0,0,0,96.24,24.67,9.64,9.64,0,0,1,100,25.89C107.12,30,107.49,42.76,100.79,54.36Z" fill="#fff" opacity="0.7"/>
        <path d="M236.13,125.94c-25,11.82-70.91,44.16-70.91,44.16-64.84,18.22-119.58,10-120.45,9.81,13.18-2.42,49.67-9.47,76.63-18a5.31,5.31,0,0,0,1.37-.68C123.13,161,157.28,137.62,236.13,125.94Z" opacity="0.1"/>
      </g>
    </g>
  </g>
</svg>