<svg xmlns="http://www.w3.org/2000/svg" viewBox="0 0 110 90">
  <g id="Layer_2" data-name="Layer 2">
    <g id="Layer_1-2" data-name="Layer 1">
      <g id="LFeets_001">
        <rect id="Left_leg" data-name="Left leg" width="110" height="90" fill="#93278f" opacity="0"/>
        <g id="LFeets_001-2" data-name="LFeets_001">
          <path id="LFeets_001-color-base" d="M85.48,53.66C91.5,57,99,62.91,98.82,71.32a2,2,0,0,1-1.68,1.93c-4.54.91-16.24.74-29.78.55l-2.19,0c-16.44-.23-36.39-.43-53.67,1-.13,0-.45,0-.78-.52a2.72,2.72,0,0,1,0-2.67c4.9-7.69,17.4-20.63,46.69-23,0,.44-.06.87-.06,1.3a2.67,2.67,0,1,0,5.34.15C63,38.29,71.57,19.53,74,14.4l19.58-1.73c-4.77,6.65-12.88,19.38-17.25,34.22h0c-.27.93-.53,1.86-.78,2.8A2.67,2.67,0,0,0,77.49,53a2.57,2.57,0,0,0,1.69-.11,2.66,2.66,0,0,0,1.47-1.56A51.16,51.16,0,0,1,85.48,53.66Z" fill="#ffa12a"/>
          <path id="LFeets_001-shadow-custom" d="M98.82,71.32a2,2,0,0,1-1.68,1.93c-4.54.91-16.24.74-29.78.55l-2.19,0c7-1.51,16.17-3.92,20-6.83,4.08-3.08,2.25-9.14.29-13.28C91.5,57,99,62.91,98.82,71.32Z" fill="#ff730d"/>
          <ellipse id="LFeets_001-highlight" cx="27.21" cy="64.7" rx="7.52" ry="4.03" transform="translate(-27.05 20.18) rotate(-27.82)" fill="#fff" opacity="0.7"/>
          <path id="LFeets_001-lfeets-outline" d="M101.76,8.23a2.65,2.65,0,0,0-2.6-1.42L72,9.2a2.68,2.68,0,0,0-2.16,1.46c-.42.86-9.06,18.24-11.76,32.56C25.71,45.51,11.7,60.12,6.18,68.76a8.09,8.09,0,0,0,0,8.32A6.14,6.14,0,0,0,12,80.15c17.79-1.52,38.6-1.23,55.33-1,14.41.2,25.81.37,30.9-.66a7.12,7.12,0,0,0,1.4-.43,7.41,7.41,0,0,0,4.59-6.66c.23-14.72-15.7-22.71-22-25.3,6.32-19.27,19.12-34.75,19.26-34.92A2.67,2.67,0,0,0,101.76,8.23ZM76.34,46.89v0q-.41,1.38-.78,2.79A2.68,2.68,0,0,0,77.49,53a2.65,2.65,0,0,0,3.16-1.67c5.61,2.4,18.35,9.07,18.18,20a2,2,0,0,1-1.68,1.92c-4.54.91-16.25.74-29.79.55-16.84-.23-37.8-.52-55.86,1-.13,0-.44,0-.77-.52a2.71,2.71,0,0,1,0-2.66C15.6,64,28.11,51,57.39,48.65c0,.43,0,.87-.06,1.3a2.68,2.68,0,0,0,5.35.14C63,38.29,71.57,19.53,74,14.4L93.6,12.67C88.83,19.33,80.72,32.05,76.34,46.89Z" fill="#881f2b"/>
        </g>
      </g>
    </g>
  </g>
</svg>
