<svg xmlns="http://www.w3.org/2000/svg" viewBox="0 0 110 90">
  <g id="Layer_2" data-name="Layer 2">
    <g id="Layer_1-2" data-name="Layer 1">
      <g id="RFeets_001">
        <rect id="right_leg" data-name="right leg" width="110" height="90" fill="#22b573" opacity="0"/>
        <g id="RFeets_001-2" data-name="RFeets_001">
          <path id="RFeets_001-color-base" d="M84.77,53.66c6,3.37,13.48,9.25,13.34,17.66a2,2,0,0,1-1.68,1.93c-4.54.91-16.25.74-29.78.55l-2.19,0c-16.44-.23-36.39-.43-53.67,1-.14,0-.45,0-.78-.52a2.72,2.72,0,0,1,0-2.67c4.91-7.69,17.41-20.63,46.69-23,0,.44-.05.87-.06,1.3a2.68,2.68,0,0,0,5.35.15c.32-11.8,8.89-30.56,11.34-35.69l19.58-1.73C88.11,19.32,80,32.05,75.63,46.89h0c-.27.93-.53,1.86-.78,2.8A2.67,2.67,0,0,0,76.77,53a2.59,2.59,0,0,0,1.7-.11,2.68,2.68,0,0,0,1.46-1.56A50,50,0,0,1,84.77,53.66Z" fill="#ff730d"/>
          <ellipse id="RFeets_001-highlight" cx="26.5" cy="64.7" rx="7.52" ry="4.03" transform="translate(-27.13 19.84) rotate(-27.82)" fill="#fff" opacity="0.7"/>
          <path id="RFeets_001-rfeets-outline" d="M101.05,8.23a2.65,2.65,0,0,0-2.6-1.42L71.32,9.2a2.67,2.67,0,0,0-2.16,1.46c-.43.86-9.07,18.24-11.76,32.56C25,45.51,11,60.12,5.47,68.76a8,8,0,0,0,0,8.32,6.14,6.14,0,0,0,5.82,3.07c17.78-1.52,38.6-1.23,55.33-1,14.41.2,25.8.37,30.9-.66a7.56,7.56,0,0,0,1.4-.43,7.38,7.38,0,0,0,4.58-6.66c.24-14.72-15.69-22.71-22-25.3,6.32-19.27,19.12-34.75,19.25-34.92A2.68,2.68,0,0,0,101.05,8.23ZM75.63,46.89v0q-.42,1.38-.78,2.79A2.67,2.67,0,0,0,76.78,53a2.65,2.65,0,0,0,3.16-1.67c5.61,2.4,18.35,9.07,18.17,20a2,2,0,0,1-1.68,1.92c-4.54.91-16.24.74-29.78.55-16.84-.23-37.8-.52-55.86,1-.13,0-.45,0-.77-.52a2.68,2.68,0,0,1,0-2.66c4.9-7.69,17.4-20.64,46.69-23,0,.43-.06.87-.06,1.3a2.67,2.67,0,1,0,5.34.14c.33-11.8,8.9-30.56,11.34-35.69l19.58-1.73C88.11,19.33,80,32.05,75.63,46.89Z" fill="#881f2b"/>
        </g>
      </g>
    </g>
  </g>
</svg>
