<svg xmlns="http://www.w3.org/2000/svg" viewBox="0 0 420 460">
  <g id="Layer_2" data-name="Layer 2">
    <g id="Layer_1-2" data-name="Layer 1">
      <g id="Tail_001">
        <rect id="Tail_guide_bottom_left" data-name="Tail guide bottom left" width="420" height="460" fill="#603813" opacity="0"/>
        <g id="Tail_001-2" data-name="Tail_001">
          <path id="Tail_001-color-base" d="M170.6,319.82a73.25,73.25,0,0,1-1,11.92,86.33,86.33,0,0,1-26,48.71c-11,10.45-33.12,17.47-55,17.47-15.92,0-29.57-3.76-38.43-10.58-19.22-14.79-11.16-40.13-1-58.82,1.07-1.52,12.78-17.91,23.92-24.11,20-11.09,41.61-36.79,45-64.79,0-.39.09-.79.13-1.19.21-2.12.32-4.23.32-6.24,0-12.46,2.85-15.79,3.55-15.95h.11c1.33,0,6.6,3.09,13.05,16.84a73.6,73.6,0,0,1,7.19,34.31,76,76,0,0,1-1.72,13.18c-.57,2.63-1.28,5.28-2.13,7.93a111.41,111.41,0,0,1-11.29,24.06,4.52,4.52,0,0,0,1.49,6.19,4.49,4.49,0,0,0,6.19-1.48c9.13-14.88,14.54-29.74,16.06-44.15a1.49,1.49,0,0,0,0-.21c.16-1.45.27-2.95.35-4.47.94-2.67,3.35-8.22,7.18-8.35a4.1,4.1,0,0,1,2.91,1.88c1.2,1.56,4.58,7.36,3.24,21.74-.2,2.17-.5,4.54-.94,7.12a150.17,150.17,0,0,1-4.21,17.47.57.57,0,0,0,0,.14,250.93,250.93,0,0,1-9.06,24.72,4.49,4.49,0,1,0,8.28,3.5c2.08-4.93,3.94-9.66,5.53-14.07l.12-.33c1.25-3.45,2.42-6.94,3.49-10.39a11.85,11.85,0,0,1,1.68-1.59A35.28,35.28,0,0,1,170.6,319.82Z" fill="#ffec51"/>
          <path id="Tail_001-shadow-custom" d="M170.6,319.82a73.25,73.25,0,0,1-1,11.92,86.33,86.33,0,0,1-26,48.71c-11,10.45-33.12,17.47-55,17.47-15.92,0-29.57-3.76-38.43-10.58-8.23-6.34-11.46-14.6-11.66-23.45,26.6,4.74,82.17,9.22,111.84-27.61,0,.11.07.21.11.32a4.49,4.49,0,0,0,8.31,0c2.08-4.93,3.94-9.66,5.53-14.07l.12-.33c1.25-3.45,2.42-6.94,3.49-10.39a11.85,11.85,0,0,1,1.68-1.59A35.28,35.28,0,0,1,170.6,319.82Z" fill="#ffc00e"/>
          <path id="Tail_001-tail-outline" d="M179.05,311.81c-1.12-7.5-3.53-9.51-5.26-10.38a7.48,7.48,0,0,0-2.88-.77c4.78-20.4,4-36-2.33-44.19-2.68-3.48-6.23-5.39-10-5.39h-.4a13.3,13.3,0,0,0-7.48,2.66,85,85,0,0,0-7.35-24.49c-6.64-14.21-14.17-22-21.21-22a9.46,9.46,0,0,0-2,.22c-4.83,1.08-10.59,6.25-10.59,24.74,0,.56,0,1.14,0,1.71-.86,26.42-21.65,52-40.77,62.65-13.61,7.57-26.54,26.25-27.07,27a3.31,3.31,0,0,0-.25.42c-21.63,39.53-10.16,60.15,3.26,70.48,10.48,8.06,26.11,12.51,44,12.51,24.33,0,48.32-7.86,61.12-20a97.75,97.75,0,0,0,11.43-13C179.05,349.78,180.81,323.51,179.05,311.81Zm-9.5,19.93a86.33,86.33,0,0,1-26,48.71c-11,10.45-33.12,17.47-55,17.47-15.92,0-29.57-3.76-38.43-10.58-19.22-14.79-11.16-40.13-1-58.82,1.07-1.52,12.78-17.91,23.92-24.11,20-11.09,41.61-36.79,45-64.79,0-.39.09-.79.13-1.19.21-2.12.32-4.23.32-6.24,0-12.46,2.85-15.79,3.55-15.95h.11c1.33,0,6.6,3.09,13.05,16.84a73.6,73.6,0,0,1,7.19,34.31,76,76,0,0,1-1.72,13.18c-.57,2.63-1.28,5.28-2.13,7.93a111.41,111.41,0,0,1-11.29,24.06,4.52,4.52,0,0,0,1.49,6.19,4.49,4.49,0,0,0,6.19-1.48c9.13-14.88,14.54-29.74,16.06-44.15a1.49,1.49,0,0,0,0-.21c.16-1.45.27-2.95.35-4.47.94-2.67,3.35-8.22,7.18-8.35a4.1,4.1,0,0,1,2.91,1.88c1.2,1.56,4.58,7.36,3.24,21.74-.2,2.17-.5,4.54-.94,7.12a150.17,150.17,0,0,1-4.21,17.47.57.57,0,0,0,0,.14,250.93,250.93,0,0,1-9.06,24.72,4.49,4.49,0,1,0,8.28,3.5c2.08-4.93,3.94-9.66,5.53-14.07l.12-.33c1.25-3.45,2.42-6.94,3.49-10.39a11.85,11.85,0,0,1,1.68-1.59,35.28,35.28,0,0,1,1,9.55A73.25,73.25,0,0,1,169.55,331.74Z" fill="#881f2b"/>
        </g>
      </g>
    </g>
  </g>
</svg>
