<svg xmlns="http://www.w3.org/2000/svg" viewBox="0 0 420 460">
  <g id="Layer_2" data-name="Layer 2">
    <g id="Layer_1-2" data-name="Layer 1">
      <g id="Tail_012">
        <rect id="Tail_guide_bottom_left" data-name="Tail guide bottom left" width="420" height="460" fill="#603813" opacity="0"/>
        <g id="Tail_012-2" data-name="Tail_012">
          <path id="Tail_012-color-base" d="M268.83,241.68c-5.4,15.39-14.13,25.82-26,31C224,281,202,274.27,194,271.28c.12-2.08.2-4.16.24-6.27,0-.35,0-.7,0-1.05a5,5,0,0,0-4.93-5.07h-.07a5,5,0,0,0-5,4.93A160.48,160.48,0,0,1,182.94,282c-4.12,32.44-17.42,58.53-28.78,75.66a184.29,184.29,0,0,1-28.4,33.72A95,95,0,0,1,99.93,390h0c-13.17-2.49-29-8.37-42.21-21.61-8.79-8.79-14.05-18.92-15.59-29.67a50.11,50.11,0,0,1,2.09-22.58c5.27-16.42,18.29-31.87,37.64-44.66,19.06-12.61,44-22.29,72.75-28.28h0q6.16-1.29,12.54-2.34a5,5,0,1,0-1.63-9.86c-2.33.38-4.64.79-6.92,1.21a102.32,102.32,0,0,1,0-14.95c1.19-17.07,7.13-41.26,29.2-56.84a42.62,42.62,0,0,1,16.83,19.79c4.54,10.52,6.61,25.7.91,47.1a5,5,0,1,0,9.66,2.57c.8-3,1.45-5.83,2-8.6a56.33,56.33,0,0,1,22.18.49A50.55,50.55,0,0,1,268.83,241.68Z" fill="#ffec51"/>
          <g id="Tail_012-shadow-custom">
            <path d="M99.93,390a95,95,0,0,0,25.83,1.37,184.29,184.29,0,0,0,28.4-33.72c11.36-17.13,24.66-43.22,28.78-75.66C161.89,334.08,121.86,372,99.93,390Z" fill="#ffc00e"/>
            <path d="M262.33,234.2a49.7,49.7,0,0,0-23-12.47c9.85,9.56,11,24.6,11,24.6C237.49,265.09,204.6,265.41,194.2,265c0,2.11-.12,4.19-.24,6.27,8,3,30.08,9.71,48.88,1.44.62-.27,1.24-.56,1.84-.87,10.93-5.46,19-15.59,24.15-30.17A49.49,49.49,0,0,0,262.33,234.2Z" fill="#ffc00e"/>
          </g>
          <g id="Tail_012-highlight">
            <path d="M187.76,160.38c-22.07,15.58-28,39.77-29.2,56.84,3-11.11,10.59-29.87,29.83-43.55,0,0,9.4,3.31,16.2,6.5A42.62,42.62,0,0,0,187.76,160.38Z" fill="#fff" opacity="0.7"/>
            <path d="M81.85,271.44C62.5,284.23,49.48,299.68,44.21,316.1a50.11,50.11,0,0,0-2.09,22.58c15.27-17.42,42.72-46.88,72.35-70a6.91,6.91,0,0,0,.73,6.29c2.79,3.66,9.76,3,15.55-1.37s8.24-11,5.45-14.64a6.62,6.62,0,0,0-5.09-2.36,178.27,178.27,0,0,1,23.49-13.45C125.88,249.15,100.91,258.83,81.85,271.44Z" fill="#fff" opacity="0.7"/>
            <path d="M262.33,234.2a41.39,41.39,0,0,1,1.17,6.8c-.71,10.62-10.18,22.3-18.82,30.85,10.93-5.46,19-15.59,24.15-30.17A49.49,49.49,0,0,0,262.33,234.2Z" fill="#fff" opacity="0.7"/>
          </g>
          <g id="Tail_012-color-mono">
            <path d="M98.11,297.12l-1.7,11.62a2,2,0,0,0,1.54,2.2l9.17,1.91a2,2,0,0,0,2-.74l4.31-5.78a2,2,0,0,0-.49-2.81l-11.78-7.75A2,2,0,0,0,98.11,297.12Z" fill="#ff730d"/>
            <path d="M137,294.76l-.37,2.55a2,2,0,0,0,1.54,2.19l2.45.52a2,2,0,0,0,2-.75l.84-1.13a2,2,0,0,0-.49-2.8L140,293.41A2,2,0,0,0,137,294.76Z" fill="#ff730d"/>
            <path d="M125.74,294.51l-5.44,3.34a2,2,0,0,0-.71,2.59l2.53,4.73a2,2,0,0,0,1.83,1l3.82-.22a2,2,0,0,0,1.84-2.17l-.9-7.87A2,2,0,0,0,125.74,294.51Z" fill="#ff730d"/>
            <path d="M114,285l-5.49,2.69a2,2,0,0,0-.94,2.51l2,4.76a2,2,0,0,0,1.73,1.2l3.64.14a2,2,0,0,0,2-2l-.14-7.59A2,2,0,0,0,114,285Z" fill="#ff730d"/>
            <path d="M125.25,331l-1.86,8.14a2,2,0,0,0,1.1,2.22l8.17,3.72a1.93,1.93,0,0,0,1.86-.13l9.43-6a2,2,0,0,0,.53-2.79L137.19,326a2,2,0,0,0-2.48-.6l-8.44,4.31A2,2,0,0,0,125.25,331Z" fill="#ff730d"/>
            <path d="M114.41,322.1l4.92,4.62a2,2,0,0,0,2.76-.08l5.25-5.51a1.94,1.94,0,0,0,.52-1.64l-.93-6.05a1.94,1.94,0,0,0-2.24-1.63l-11.23,1.8a2,2,0,0,0-1.52,2.64l2,5.13A1.85,1.85,0,0,0,114.41,322.1Z" fill="#ff730d"/>
            <path d="M137.55,305.75l-3.11,4.86a2,2,0,0,0-.1,1.95l3.24,6.28a2,2,0,0,0,2.45.92l7.05-2.74a2,2,0,0,0,1.25-1.9l-.23-6a2,2,0,0,0-1.31-1.77L139.84,305A2,2,0,0,0,137.55,305.75Z" fill="#ff730d"/>
          </g>
          <path id="Tail_012-tail-outline" d="M278.68,238.53a59.15,59.15,0,0,0-16.2-17.05c-9-6.41-23.63-13-43.9-10.55,1.84-20.87-3.88-35-9.8-43.76-8.36-12.37-18.91-17-19.36-17.21a5,5,0,0,0-4.68.39c-18.85,12.14-31,31.36-35,55.58a111.23,111.23,0,0,0-1,28.27c-28.53,6.29-52.84,16-72.39,28.9-21.26,14.06-35.66,31.33-41.64,49.95-7.18,22.32-1.36,45.06,16,62.37,22.82,22.82,51.66,26.29,67.1,26.29a79.42,79.42,0,0,0,10.89-.65,5.07,5.07,0,0,0,2.47-1.12c.64-.53,15.78-13.34,31.2-36.5,12.25-18.41,26.61-46.63,30.76-81.84a92.51,92.51,0,0,0,29.24,5.13,60.86,60.86,0,0,0,24.51-4.83c15.18-6.65,26-19.9,32.28-39.37A5,5,0,0,0,278.68,238.53Zm-35.84,34.19C224,281,202,274.27,194,271.28c.14-2.42.23-4.85.26-7.32a5,5,0,0,0-4.93-5.07h-.07a5,5,0,0,0-5,4.93c-.55,40.89-16.65,73.57-30.06,93.79a184.29,184.29,0,0,1-28.4,33.72c-7.37.71-42.47,2.6-68.05-23C42.93,353.57,38.13,335,44.21,316.1c5.27-16.42,18.29-31.87,37.64-44.66,21.79-14.41,51.29-25,85.3-30.62a5,5,0,1,0-1.63-9.86c-2.33.38-4.64.79-6.92,1.21-1-13.49-.86-50.59,29.16-71.79,7.51,4.5,29.69,22,17.74,66.89a5,5,0,1,0,9.66,2.57c.8-3,1.45-5.83,2-8.6,31.18-5.16,47.41,14.27,51.7,20.44C263.43,257.07,254.7,267.5,242.84,272.72Z" fill="#881f2b"/>
        </g>
      </g>
    </g>
  </g>
</svg>
