<svg xmlns="http://www.w3.org/2000/svg" viewBox="0 0 350 370">
  <g id="Layer_2" data-name="Layer 2">
    <g id="Layer_1-2" data-name="Layer 1">
      <g id="TChick_001">
        <rect id="top_body_guide" data-name="top body guide" width="350" height="370" fill="#7f47dd" opacity="0"/>
        <g id="TChick_001-2" data-name="TChick_001">
          <path id="TChick_001-color-base" d="M325.19,242.11a15.4,15.4,0,0,0-8.25,1.88,15.68,15.68,0,0,0-8,11.79c-2.49,20-15.11,35.41-20.42,41.11a5.66,5.66,0,0,1-3.63,1.75c-19.56,1.7-36.23-7.56-46.77-15.62a15.59,15.59,0,0,0-14.38-2.43,15.41,15.41,0,0,0-10,10.36c-6.75,23.55-20.48,35.72-26.07,39.86a5.39,5.39,0,0,1-2.71,1c-20.43,2-39.35-10.15-51.63-20.67a15.54,15.54,0,0,0-24.28,5.42c-8,18-26.2,29.42-33.66,33.52a5.29,5.29,0,0,1-4.32.38C58,345.86,46.05,338,35.5,327c-2.31-7.83-4.34-15.6-6.13-23.26A493.18,493.18,0,0,1,16.89,193.05C16.89,78.85,73.6,16,176.57,16c22.36,0,133.88,6,133.88,124.29,0,40.12,3.85,70.37,12.28,95.12Q323.9,238.81,325.19,242.11Z" fill="#fff"/>
          <path id="TChick_001-shadow-custom" d="M325.19,242.11a15.4,15.4,0,0,0-8.25,1.88,15.68,15.68,0,0,0-8,11.79c-2.49,20-15.11,35.41-20.42,41.11a5.66,5.66,0,0,1-3.63,1.75c-19.56,1.7-36.23-7.56-46.77-15.62a15.59,15.59,0,0,0-14.38-2.43,15.41,15.41,0,0,0-10,10.36c-6.75,23.55-20.48,35.72-26.07,39.86a5.39,5.39,0,0,1-2.71,1c-20.43,2-39.35-10.15-51.63-20.67a15.54,15.54,0,0,0-24.28,5.42c-8,18-26.2,29.42-33.66,33.52a5.29,5.29,0,0,1-4.32.38C58,345.86,46.05,338,35.5,327c-2.31-7.83-4.34-15.6-6.13-23.26,9.85,9.6,28.53,25.74,41.25,24,0,0,18.92,1.52,34-26.26a14.93,14.93,0,0,1,21-5.57c13.48,8.38,34.53,18.6,54.22,16.11,0,0,18.11-4.95,30.75-37.17a17.59,17.59,0,0,1,25.86-8.36c10.81,7,25.85,13.79,44,14.27,0,0,13,.42,22.66-37.51a12.43,12.43,0,0,1,15.23-9c1.39.36,2.85.72,4.35,1Q323.9,238.81,325.19,242.11Z" opacity="0.1"/>
          <path id="TChick_001-tchick-outline" d="M338.78,248.3c-12.68-26.36-18.33-59.68-18.33-108S303,55.27,268.62,31.88C235.46,9.33,196.72,6,176.57,6c-50.84,0-91.38,14.46-120.48,43-32.65,32-49.2,80.47-49.2,144.11,0,33.34,3.36,84.34,19.37,138l.34,1.14.82.86c11.84,12.54,25.41,21.57,40.31,26.87a15.23,15.23,0,0,0,5.07.87,15.42,15.42,0,0,0,7.43-1.91c8.34-4.58,28.76-17.48,38-38.22a5.39,5.39,0,0,1,3.78-3.08,5.53,5.53,0,0,1,4.86,1.2c13.75,11.78,35.16,25.34,59.08,23a15.45,15.45,0,0,0,7.71-3c6.41-4.74,22.14-18.63,29.74-45.13a5.28,5.28,0,0,1,3.49-3.62A5.53,5.53,0,0,1,232,291c11.95,9.14,31,19.62,53.72,17.64a15.66,15.66,0,0,0,10.08-4.89c6-6.41,20.17-23.79,23-46.69a5.57,5.57,0,0,1,2.88-4.25,5.36,5.36,0,0,1,4.91-.14c1.94.94,3.86,1.76,5.87,2.52l11.67,4.4ZM316.94,244a15.68,15.68,0,0,0-8,11.79c-2.49,20-15.11,35.41-20.42,41.11a5.66,5.66,0,0,1-3.63,1.75c-19.56,1.7-36.23-7.56-46.77-15.62a15.59,15.59,0,0,0-14.38-2.43,15.41,15.41,0,0,0-10,10.36c-6.75,23.55-20.48,35.72-26.07,39.86a5.39,5.39,0,0,1-2.71,1c-20.43,2-39.35-10.15-51.63-20.67a15.54,15.54,0,0,0-24.28,5.42c-8,18-26.2,29.42-33.66,33.52a5.29,5.29,0,0,1-4.32.38C58,345.86,46.05,338,35.5,327,20.13,275,16.89,225.48,16.89,193.05,16.89,78.85,73.6,16,176.57,16c22.36,0,133.88,6,133.88,124.29,0,43.83,4.59,75.89,14.74,101.86A15.4,15.4,0,0,0,316.94,244Z" fill="#881f2b"/>
        </g>
      </g>
    </g>
  </g>
</svg>
